<?xml version="1.0" standalone="no"?>
<!DOCTYPE svg PUBLIC "-//W3C//DTD SVG 1.1//EN" "http://www.w3.org/Graphics/SVG/1.1/DTD/svg11.dtd" >
<!--
2013-9-30: Created.
-->
<svg>
<metadata>
Created by iconfont
</metadata>
<defs>

<font id="iconfont" horiz-adv-x="1024" >
  <font-face
    font-family="iconfont"
    font-weight="500"
    font-stretch="normal"
    units-per-em="1024"
    ascent="896"
    descent="-128"
  />
    <missing-glyph />
    
    <glyph glyph-name="dayin" unicode="&#58882;" d="M844.7488 634.1243l-55.614464 0L789.134336 828.771328 233.001984 828.771328l0-194.646016-55.61344 0c-61.3427 0-111.2269-49.8831-111.2269-111.2259l0-361.48736 166.839296 0 0-222.452736 556.133376 0L789.134316 161.412096l166.84032 0L955.974636 522.898432C955.9747 584.2422 906.0905 634.1243 844.7488 634.1243zM288.6154 773.1579l444.906496 0 0-139.032576L288.615424 634.125324 288.615424 773.157888zM733.5219-5.4272 288.615424-5.4272 288.615424 244.832256l444.906496 0L733.52192-5.4272zM900.3602 217.0255 789.134336 217.0255l0 83.419136L233.001984 300.444636l0-83.419136L121.775104 217.0255 121.775104 522.898432c0 30.6575 24.9549 55.6134 55.6134 55.6134l667.360256 0c30.6565 0 55.6124-24.9559 55.6124-55.6134L900.36116 217.025536zM511.0671 495.0927 260.808704 495.0927c-15.3702 0-27.8067-12.4375-27.8067-27.8067 0-15.3692 12.4375-27.8067 27.8067-27.8067l250.259456 0c15.3692 0 27.8067 12.4375 27.8067 27.8067C538.8749 482.6552 526.4364 495.0927 511.0671 495.0927z"  horiz-adv-x="1024" />

    
    <glyph glyph-name="rili" unicode="&#58912;" d="M246.921623 553.948783l65.901573 0c9.911127 0 18.041627 8.102538 18.041627 18.012236L330.864823 716.931784c0 9.910721-8.130501 18.013259-18.041627 18.013259l-65.901573 0c-10.026765 0-18.012974-8.102538-18.012974-18.013259l0-144.971789C228.908649 562.051321 236.894858 553.948783 246.921623 553.948783zM711.235135 553.948783l65.93125 0c9.93978 0 18.012974 8.102538 18.012974 18.012236L795.179359 716.931784c0 9.910721-8.073193 18.013259-18.012974 18.013259l-65.93125 0c-9.938757 0-18.128612-8.102538-18.128612-18.013259l0-144.971789C693.106523 562.051321 701.296378 553.948783 711.235135 553.948783zM854.727986 665.635491l-23.144041 0 0-93.675496c0-29.961382-24.42425-54.502311-54.41756-54.502311l-65.93125 0c-29.96261 0-54.504545 24.539906-54.504545 54.502311l0 93.675496L367.240756 665.635491l0-93.675496c0-29.961382-24.42425-54.502311-54.41756-54.502311l-65.901573 0c-30.021964 0-54.475891 24.539906-54.475891 54.502311l0 93.675496-23.376341 0c-57.769025 0-104.783685-46.983057-104.783685-104.809067l0-194.57758 0-396.210857c0-57.999972 47.01466-104.984053 104.783685-104.984053l685.658595 0c57.914341 0 104.987331 46.984081 104.987331 104.984053L959.715317 366.248843 959.715317 560.827447C959.715317 618.652434 912.642327 665.635491 854.727986 665.635491zM893.317421-29.96099c0-21.335934-17.28435-38.587853-38.589435-38.587853L169.069391-68.548844c-21.131115 0-38.357135 17.251919-38.357135 38.587853L130.712256 366.248843l762.606188 0L893.318444-29.96099z"  horiz-adv-x="1024" />

    
    <glyph glyph-name="msnui-foresight" unicode="&#59249;" d="M918.188 341.979h-44.646c-19.259-167.487-152.058-300.177-319.523-319.479v-44.69c0-23.198-18.822-42.020-42.020-42.020s-42.020 18.822-42.020 42.020v44.69c-167.464 19.304-300.263 151.994-319.522 319.479h-44.646c-23.198 0-42.020 18.822-42.020 42.020 0 23.22 18.822 42.020 42.020 42.020h44.69c19.303 167.465 151.993 300.265 319.479 319.546v44.623c0 23.198 18.822 42.020 42.020 42.020s42.020-18.822 42.020-42.020v-44.69c167.465-19.303 300.265-151.993 319.523-319.479h44.646c23.198 0 42.020-18.799 42.020-42.020-0.001-23.198-18.823-42.020-42.021-42.020zM708.091 426.019h80.537c-18.23 120.981-113.671 216.445-234.609 234.696v-80.625c0-23.198-18.822-42.020-42.020-42.020s-42.020 18.822-42.020 42.020v80.56c-120.981-18.253-216.445-113.693-234.696-234.631h80.625c23.198 0 42.020-18.799 42.020-42.020 0-23.198-18.822-42.020-42.020-42.020h-80.537c18.254-120.98 113.673-216.444 234.609-234.695v80.624c0 23.22 18.822 42.020 42.020 42.020s42.020-18.799 42.020-42.020v-80.624c120.938 18.252 216.378 113.715 234.609 234.696l-80.538-0c-23.198 0-42.020 18.822-42.020 42.020-0 23.22 18.822 42.019 42.020 42.019zM511.999 341.979c-23.198 0-42.020 18.822-42.020 42.020 0 23.22 18.822 42.020 42.020 42.020s42.020-18.799 42.020-42.020c-0.001-23.198-18.822-42.020-42.020-42.020z"  horiz-adv-x="1024" />

    
    <glyph glyph-name="cardid" unicode="&#58915;" d="M861.091 767.636l-698.182 0c-64.279 0-116.364-52.084-116.364-116.364l0-558.545c0-64.279 52.084-116.364 116.364-116.364l698.182 0c64.279 0 116.364 52.084 116.364 116.364l0 558.545c0 64.279-52.084 116.364-116.364 116.364zM930.909 92.727c0-38.54-31.279-69.818-69.818-69.818l-698.182 0c-38.54 0-69.818 31.279-69.818 69.818l0 558.545c0 38.54 31.279 69.818 69.818 69.818l698.182 0c38.54 0 69.818-31.279 69.818-69.818l0-558.545zM186.182 185.818l256 0 0 46.545-256 0 0-46.545zM186.182 348.727l256 0 0 46.545-256 0 0-46.545zM186.182 511.636l256 0 0 46.545-256 0 0-46.545zM749.475 353.149c25.321 21.364 41.798 52.922 41.798 88.669 0 64.279-52.084 116.364-116.364 116.364-64.279 0-116.364-52.084-116.364-116.364 0-35.747 16.477-67.305 41.798-88.669-52.271-27.136-88.343-81.129-88.343-144.058 0-12.847 10.426-23.273 23.273-23.273 12.847 0 23.273 10.426 23.273 23.273 0 64.279 52.084 116.364 116.364 116.364 64.279 0 116.364-52.084 116.364-116.364 0-12.847 10.426-23.273 23.273-23.273 12.847 0 23.273 10.426 23.273 23.273 0 62.929-36.073 116.922-88.343 144.058zM674.909 372c-38.54 0-69.818 31.279-69.818 69.818 0 38.54 31.279 69.818 69.818 69.818 38.54 0 69.818-31.279 69.818-69.818 0-38.54-31.279-69.818-69.818-69.818z"  horiz-adv-x="1024" />

    
    <glyph glyph-name="yuyue" unicode="&#58948;" d="M510.400572-56.050318c-239.344157 0-435.167101 198.552102-435.167101 441.22712 0 242.679112 195.823967 441.232237 435.167101 441.232237 239.33904 0 435.163007-198.553125 435.163007-441.232237C945.56358 142.502807 749.739613-56.050318 510.400572-56.050318L510.400572-56.050318zM510.400572 771.255904c-209.426777 0-380.772236-173.733856-380.772236-386.078079 0-212.340129 171.34546-386.073986 380.772236-386.073986 209.420637 0 380.76712 173.733856 380.76712 386.073986C891.167692 597.522048 719.821209 771.255904 510.400572 771.255904L510.400572 771.255904zM510.400572 771.255904M714.381313 318.994474 464.163505 318.994474c-16.319687 0-27.197432 11.029194-27.197432 27.576055L436.966073 619.58146c0 16.546861 10.878768 27.576055 27.197432 27.576055 16.319687 0 27.197432-11.029194 27.197432-27.576055l0-245.433852 223.020376 0c16.319687 0 27.197432-11.029194 27.197432-27.577079C741.578746 332.783525 730.699977 318.994474 714.381313 318.994474L714.381313 318.994474zM714.381313 318.994474"  horiz-adv-x="1024" />

    
    <glyph glyph-name="erweima" unicode="&#58892;" d="M363.096 284.732h-248.172c-27.386 0-49.634-22.249-49.634-49.634v-248.172c0-27.411 22.249-49.634 49.634-49.634h248.172c27.386 0 49.633 22.223 49.633 49.634v248.172c0.001 27.386-22.248 49.634-49.633 49.634v0 0zM363.096 11.744c0-13.695-11.1-24.817-24.817-24.817l-198.538 0c-13.717 0-24.817 11.122-24.817 24.817l0 198.537c0 13.716 11.1 24.817 24.817 24.817h198.538c13.717 0 24.817-11.101 24.817-24.817l-0-198.537zM524.408 284.732h-24.817c-6.835 0-12.457-5.55-12.457-12.41v-223.355c0-6.859 5.622-12.408 12.457-12.408h24.817c6.836 0 12.41 5.548 12.41 12.408l0 223.355c0 6.859-5.574 12.41-12.41 12.41v0 0zM499.591 483.269h24.817c6.836 0 12.41 5.55 12.41 12.409l0 322.623c0 6.859-5.574 12.409-12.41 12.409h-24.817c-6.835 0-12.457-5.549-12.457-12.409v-322.623c-0-6.858 5.622-12.409 12.457-12.409v0 0zM114.924 483.269h248.172c27.386 0 49.633 22.248 49.633 49.634l-0 248.196c0 27.387-22.248 49.61-49.633 49.61h-248.172c-27.386 0-49.634-22.224-49.634-49.61v-248.196c0-27.387 22.249-49.634 49.634-49.634v0 0zM114.924 756.257c0 13.693 11.1 24.841 24.817 24.841h198.538c13.717 0 24.817-11.149 24.817-24.841v-198.513c0-13.742-11.1-24.841-24.817-24.841l-198.538-0c-13.717 0-24.817 11.1-24.817 24.841l0 198.513zM673.359 210.257h-24.865c-6.834 0-12.408-5.526-12.408-12.386v-248.172c0-6.859 5.574-12.408 12.408-12.408h24.865c6.788 0 12.311 5.548 12.311 12.408v248.172c0.001 6.859-5.524 12.386-12.311 12.386v0 0zM946.252 408.841h-868.554c-6.835 0-12.409-5.599-12.409-12.432v-24.817c0-6.834 5.574-12.408 12.409-12.408h868.554c6.884 0 12.458 5.574 12.458 12.408l-0 24.817c0 6.835-5.574 12.432-12.458 12.432v0 0zM909.025 830.709h-248.121c-27.388 0-49.634-22.224-49.634-49.61v-248.196c0-27.387 22.247-49.634 49.634-49.634h248.122c27.483 0 49.685 22.248 49.685 49.634v248.196c-0.001 27.386-22.202 49.61-49.686 49.61v0 0zM909.025 557.744c0-13.742-11.099-24.841-24.767-24.841l-198.587-0c-13.668 0-24.767 11.1-24.767 24.841v198.513c0 13.693 11.099 24.841 24.767 24.841h198.587c13.668 0 24.767-11.149 24.767-24.841v-198.513zM797.348 210.257h-24.769c-6.884 0-12.408-5.526-12.408-12.386v-248.172c0-6.859 5.524-12.408 12.408-12.408h24.769c6.884 0 12.458 5.548 12.458 12.408v248.172c-0 6.859-5.574 12.386-12.458 12.386v0 0zM921.483 284.732h-24.769c-6.882 0-12.456-5.55-12.456-12.41v-322.623c0-6.859 5.574-12.408 12.456-12.408h24.769c6.884 0 12.41 5.548 12.41 12.408v322.623c0 6.859-5.526 12.41-12.41 12.41v0 0zM921.483 284.732z"  horiz-adv-x="1024" />

    
    <glyph glyph-name="liebiao" unicode="&#58901;" d="M335.580988 565.488471c0-10.737552-8.705266-19.442818-19.442818-19.442818l-99.253538 0c-10.737552 0-19.442818 8.705266-19.442818 19.442818l0 45.579081c0 10.737552 8.705266 19.442818 19.442818 19.442818l99.253538 0c10.737552 0 19.442818-8.705266 19.442818-19.442818L335.580988 565.488471zM851.301729 565.488471c0-10.737552-8.705266-19.442818-19.442818-19.442818L421.023986 546.045653c-10.737552 0-19.442818 8.705266-19.442818 19.442818l0 45.579081c0 10.737552 8.705266 19.442818 19.442818 19.442818l410.834926 0c10.737552 0 19.442818-8.705266 19.442818-19.442818L851.301729 565.488471 851.301729 565.488471zM335.580988 377.860163c0-10.737552-8.705266-19.442818-19.442818-19.442818l-99.253538 0c-10.737552 0-19.442818 8.705266-19.442818 19.442818l0 45.579081c0 10.737552 8.705266 19.442818 19.442818 19.442818l99.253538 0c10.737552 0 19.442818-8.705266 19.442818-19.442818L335.580988 377.860163zM851.301729 377.860163c0-10.737552-8.705266-19.442818-19.442818-19.442818L421.023986 358.417345c-10.737552 0-19.442818 8.705266-19.442818 19.442818l0 45.579081c0 10.737552 8.705266 19.442818 19.442818 19.442818l410.834926 0c10.737552 0 19.442818-8.705266 19.442818-19.442818L851.301729 377.860163 851.301729 377.860163zM335.580988 195.711659c0-10.737552-8.705266-19.442818-19.442818-19.442818l-99.253538 0c-10.737552 0-19.442818 8.705266-19.442818 19.442818l0 45.579081c0 10.737552 8.705266 19.442818 19.442818 19.442818l99.253538 0c10.737552 0 19.442818-8.705266 19.442818-19.442818L335.580988 195.711659zM851.301729 195.711659c0-10.737552-8.705266-19.442818-19.442818-19.442818L421.023986 176.268842c-10.737552 0-19.442818 8.705266-19.442818 19.442818l0 45.579081c0 10.737552 8.705266 19.442818 19.442818 19.442818l410.834926 0c10.737552 0 19.442818-8.705266 19.442818-19.442818L851.301729 195.711659 851.301729 195.711659z"  horiz-adv-x="1024" />

    
    <glyph glyph-name="xinzeng" unicode="&#58914;" d="M508.56665019 882.39373777c-275.08775419 0-498.09059858-223.00284439-498.09059858-498.09059858s223.00284439-498.09059858 498.09059858-498.09059858 498.09059858 223.00284439 498.09059858 498.09059858S783.65440438 882.39373777 508.56665019 882.39373777zM844.36317086 360.79220374c0-13.900172-11.26930001-25.16947201-25.16947202-25.16947201L557.24705767 335.62273173000005l0-261.94663988c0-13.900172-11.26930001-25.16947201-25.16947201-25.16947201l-47.02187223 0c-13.900172 0-25.16947201 11.26930001-25.16947201 25.16947201L459.88624272 335.62273173000005l-261.94796547 0c-13.900172 0-25.16947201 11.26930001-25.16947202 25.16947201l0 47.02187221c0 13.900172 11.26930001 25.16947201 25.16947202 25.16947201l261.94663987 0L459.88491841 694.93018784c0 13.900172 11.26930001 25.16947201 25.16947201 25.169472l47.02187223 0c13.900172 0 25.16947201-11.26930001 25.16947201-25.169472l0-261.94663988L819.19237323 432.98354667c13.900172 0 25.16947201-11.26930001 25.16947201-25.169472l0-47.02187223L844.36317086 360.79220374z"  horiz-adv-x="1024" />

    
    <glyph glyph-name="zuo" unicode="&#58937;" d="M511.73460259 78.73813084999995M409.31066833 384.67183047L409.31066833 384.67183047l259.4071776 259.40370351c10.02257198 10.04063573 10.02257198 26.32714183 1e-8 36.38097804-10.05661512 10.04063573-26.34242667 10.04063573-36.3962629 0L356.80645221 404.91011765c-0.75172744-0.58915462-1.48747616-1.23875271-2.17667512-1.93073124-10.04063573-10.05383623-10.04063573-26.3396478 0-36.38097805l277.15892683-277.16170638c10.05383623-10.05314168 26.3396478-10.05314168 36.38028349 0 10.03855139 10.02604611 10.03855139 26.31185697 0 36.36569321L409.31066833 384.67183047 409.31066833 384.67183047zM409.31066833 384.67183047"  horiz-adv-x="1024" />

    
    <glyph glyph-name="guanlianbiaodanbiaogeguanxi" unicode="&#59252;" d="M225.664 320l-160 0L65.664 704l512 0 0-384-96 0c-17.664 0-32-14.336-32-32S464 256 481.664 256l96 0c35.392 0 64 28.608 64 64L641.664 704c0 35.392-28.608 64-64 64l-512 0c-35.392 0-64-28.608-64-64l0-384c0-35.392 28.608-64 64-64l160 0c17.664 0 32 14.336 32 32S243.392 320 225.664 320zM897.664 512l-160 0c-17.664 0-32-14.336-32-32S720 448 737.664 448l160 0 0-384-512 0L385.664 448l96 0c17.664 0 32 14.336 32 32S499.392 512 481.664 512l-96 0c-35.392 0-64-28.608-64-64l0-384c0-35.392 28.608-64 64-64l512 0c35.392 0 64 28.608 64 64L961.664 448C961.664 483.392 933.056 512 897.664 512z"  horiz-adv-x="1024" />

    
    <glyph glyph-name="feiyongjiesuandan" unicode="&#58933;" d="M243.332583 301.995251l582.695163 0 0-53.428321L243.332583 248.566929 243.332583 301.995251 243.332583 301.995251 243.332583 301.995251 243.332583 301.995251zM241.912761 97.026872l582.690164 0 1.349831-57.292838L243.332583 39.734033 241.912761 97.026872 241.912761 97.026872 241.912761 97.026872 241.912761 97.026872zM556.588426 511.644044l269.44032 0 0-54.308211L556.588426 457.335833 556.588426 511.644044 556.588426 511.644044 556.588426 511.644044 556.588426 511.644044zM614.48019 721.426822l211.547557 0 0-55.320085L614.48019 666.106737 614.48019 721.426822 614.48019 721.426822 614.48019 721.426822 614.48019 721.426822zM874.647669-128 167.695038-128c-46.589176 0-84.441445 39.750031-84.441445 88.508936L83.253593 807.491064C83.253593 856.249969 121.105862 896 167.695038 896l706.952631 0c46.589176 0 84.439445-39.750031 84.439445-88.508936l0-846.917135C959.087114-88.249969 921.166854-128 874.647669-128L874.647669-128 874.647669-128 874.647669-128zM156.794401 842.436695c-9.548806 0-17.539808-10.023747-17.539808-21.807274l0-873.258843c0-11.853518 8.058993-21.807274 17.539808-21.807274l728.821897 0c9.548806 0 17.537808 10.023747 17.537808 21.807274L903.154106 820.629421c0 11.850519-8.058993 21.807274-17.537808 21.807274L156.794401 842.436695 156.794401 842.436695 156.794401 842.436695 156.794401 842.436695zM470.519185 567.377078c7.651044-13.070366 11.580552-28.376453 11.580552-45.914261 0-26.816648-7.991001-49.225847-23.972003-67.108611-16.049994-17.874766-39.072116-28.503437-69.341332-31.686039l0-45.981252-38.462192 0 0 45.776278c-50.313711 5.214348-81.529809 34.467692-93.515311 87.75603l59.51956 15.578053c5.486314-33.52081 23.702037-50.313711 54.71816-50.313711 14.488189 0 25.188851 3.589551 32.027997 10.768654 6.839145 7.241095 10.293713 15.84302 10.293713 26.00175 0 10.56368-3.454568 18.484689-10.293713 23.83702-6.771154 5.419323-22.007249 12.253468-45.504312 20.584427-21.129359 7.379078-37.720285 14.628171-49.635796 21.872266-11.850519 7.111111-21.534308 17.132858-28.981377 30.063242-7.449069 12.935383-11.105612 28.036495-11.105612 45.101362 0 22.47919 6.701162 42.79665 19.909511 60.739408 13.338333 18.012748 34.122735 29.051369 62.634171 33.045869l0 35.482565 38.462192 0 0-35.482565c42.999625-5.149356 70.901137-29.456318 83.631546-72.995876l-53.160355-21.804274c-10.358705 29.858268-26.271716 44.826397-48.010999 44.826397-10.833646 0-19.569554-3.319585-26.068741-10.023747-6.634171-6.701162-9.953756-14.763155-9.953756-24.24197 0-9.68079 3.179603-17.064867 9.548806-22.277215 6.364204-5.146357 19.904512-11.580552 40.761905-19.164604 22.822147-8.330959 40.834896-16.31996 53.768279-23.632046C452.373453 590.736158 462.665167 580.445444 470.519185 567.377078L470.519185 567.377078 470.519185 567.377078 470.519185 567.377078z"  horiz-adv-x="1024" />

    
    <glyph glyph-name="zulinfeiyongchuzhang" unicode="&#58996;" d="M919.263 8.932l-66.905-133.62-66.935 133.645-66.905-133.645-66.91 133.62-66.93-133.62-66.91 133.645-66.93-133.625-66.91 133.625-66.93-133.625-66.907 133.6-66.887-133.6-66.952 133.625-99.59-136.955L16.662 796.52C16.662 851.38 61.327 896 116.252 896l803.01 0c54.925 0 99.615-44.62 99.615-99.48l0-924.518L919.263 8.932zM953.618 191.362l-0.105 0L953.513 796.52c0 18.822-15.36 34.117-34.25 34.117l-803.01 0c-18.867 0-34.227-15.295-34.227-34.117l0-709.938 0.11 0.22 0-64.12 100.33 0 0.717-1.39 0.697 1.39 132.422 0 0.697-1.39 0.72 1.39 132.422 0 0.697-1.39 0.717 1.39 132.422 0 0.7-1.37 0.695 1.37 132.445 0 0.7-1.37 0.695 1.37 132.445 0 0.7-1.37 0.69 1.37 100.57 0L953.617 191.362zM774.658 242.407l-158.11 0c-14.53 0-26.34 11.765-26.34 26.275 0 14.51 11.81 26.275 26.34 26.275l158.11 0c14.535 0 26.345-11.765 26.345-26.275C801.003 254.172 789.193 242.407 774.658 242.407zM774.658 373.781 537.529 373.781c-14.55 0-26.36 11.767-26.36 26.3 0 14.51 11.81 26.252 26.36 26.252l237.129 0c14.535 0 26.345-11.742 26.345-26.252C801.003 385.549 789.193 373.781 774.658 373.781zM774.658 505.181 537.529 505.181c-14.55 0-26.36 11.765-26.36 26.275 0 14.512 11.81 26.255 26.36 26.255l237.129 0c14.535 0 26.345-11.742 26.345-26.255C801.003 516.946 789.193 505.181 774.658 505.181zM774.658 636.536 537.529 636.536c-14.55 0-26.36 11.765-26.36 26.277 0 14.51 11.81 26.275 26.36 26.275l237.129 0c14.535 0 26.345-11.765 26.345-26.275C801.003 648.301 789.193 636.536 774.658 636.536zM326.217 326.766l0-51.965c-7.387-1.785-14.947-2.68-22.66-2.68-7.735 0-15.467 0.895-23.202 2.68l0 47.5-4.205 0c-11.592 0-21.962 0.3-31.09 0.89-9.152 0.61-17.845 1.57-26.08 2.92-8.257 1.33-16.427 3.05-24.51 5.14-8.085 2.095-16.515 4.62-25.295 7.63 1.045 8.65 2.985 17.385 5.795 26.19 2.81 8.82 6.142 17.992 10.022 27.557 14.75-5.075 28.627-8.585 41.612-10.522 13.007-1.94 26.885-2.92 41.635-2.92 22.137 0 39.262 3.202 51.375 9.63 12.135 6.427 18.192 16.797 18.192 31.135 0 7.167-1.678 13.072-5.01 17.69-3.335 4.64-7.562 8.452-12.637 11.437-5.098 2.985-10.807 5.512-17.147 7.605-6.317 2.09-12.462 4.335-18.43 6.732l-27.932 10.305c-11.59 4.163-22.135 8.563-31.612 13.202-9.5 4.64-17.647 10.152-24.512 16.58-6.84 6.405-12.112 13.965-15.795 22.615-3.702 8.672-5.532 19.26-5.532 31.81 0 26.865 8.952 48.062 26.862 63.597 17.91 15.512 42.68 24.925 74.295 28.212l0 47.497c7.385 1.787 14.922 2.68 22.657 2.68 7.387 0 15.12-0.893 23.205-2.68l0-46.145c14.03-0.892 27.56-2.615 40.567-5.162 12.985-2.53 26.69-5.905 41.112-10.067-2.115-17.32-7.735-34.357-16.865-51.067-5.272 1.785-10.63 3.572-16.077 5.357-5.447 1.81-11.242 3.29-17.387 4.49-6.165 1.197-13.092 2.155-20.827 2.917-7.735 0.742-16.515 1.113-26.34 1.113-5.97 0-12.027-0.37-18.172-1.113-6.165-0.762-11.697-2.33-16.6-4.705-4.925-2.397-8.955-5.752-12.137-10.065-3.158-4.357-4.727-9.935-4.727-16.8 0-5.99 1.22-11.067 3.682-15.25 2.462-4.16 5.795-7.67 10.022-10.5 4.205-2.855 8.955-5.317 14.227-7.387 5.25-2.092 10.522-4.03 15.795-5.837l31.612-11.2c13.357-4.77 25.47-9.565 36.365-14.335 10.892-4.772 20.107-10.525 27.67-17.235 7.56-6.732 13.442-14.945 17.647-24.64 4.225-9.717 6.34-21.875 6.34-36.515 0-24.49-8.17-45.167-24.512-62.047C381.272 344.171 357.482 332.736 326.217 326.766z"  horiz-adv-x="1024" />

    
    <glyph glyph-name="shanchu4" unicode="&#59024;" d="M980.151134 582.179681c-26.653233 60.184719-62.764064 113.491184-108.332494 161.638959C826.25021 790.246851 770.3644 826.357683 710.179681 853.010915c-62.764064 26.653233-128.107473 41.269521-197.74979 41.269521-67.922754 0-134.985726-14.616289-197.74979-41.269521-60.184719-26.653233-113.491184-62.764064-161.638959-108.332494C105.753149 698.25021 69.642317 642.3644 42.989085 582.179681c-26.653233-62.764064-41.269521-128.107473-41.269521-197.74979 0-67.922754 14.616289-134.985726 41.269521-197.74979 26.653233-60.184719 62.764064-113.491184 108.332494-161.638959 45.56843-45.56843 101.45424-82.539043 161.638959-108.332494 62.764064-26.653233 128.107473-41.269521 197.74979-41.269521 67.922754 0 134.985726 14.616289 197.74979 41.269521 60.184719 26.653233 113.491184 62.764064 161.638959 108.332494 45.56843 45.56843 82.539043 101.45424 108.332494 161.638959 26.653233 62.764064 41.269521 128.107473 41.269521 197.74979C1021.420655 451.492863 1006.804366 519.415617 980.151134 582.179681zM738.552477 125.6356 514.149454 350.038623 294.04534 130.794291l-33.531486 33.531486 220.104114 220.104114L255.355164 608.832914l33.531486 33.531486 224.403023-224.403023L734.253568 638.065491l33.531486-33.531486L547.68094 384.429891l224.403023-224.403023L738.552477 125.6356z"  horiz-adv-x="1024" />

    
    <glyph glyph-name="bianjibi" unicode="&#59461;" d="M859.008 598.464l-132.48 133.056c-48.64 48.64-128 48.64-177.344 0l-460.8-461.76c-15.168-15.168-23.744-35.904-23.744-57.344l0-212.032c0-42.496 22.08-63.936 64-63.936l213.632 1.152c21.44 0.064 41.984 8.704 57.152 23.872l459.648 460.48C908.288 470.528 908.288 549.824 859.008 598.464zM334.144 1.536 128.64 0.32l0 204.032c0 3.904 1.216 7.552 2.24 11.264 1.408-4.352 3.584-8.576 7.04-12.032l193.088-193.024c3.584-3.584 7.872-5.696 12.352-7.104C340.288 2.688 337.344 1.536 334.144 1.536zM382.72 33.024c-0.256 7.424-3.008 14.784-8.704 20.48l-193.088 193.088c-5.312 5.312-12.032 7.872-18.944 8.384l312.128 312.384 221.184-221.184L382.72 33.024zM814.784 466.048l-72.576-72.704L521.152 614.464l72.96 73.024c24.32 24.32 64 24.256 88.256-0.064l132.48-133.056C839.168 529.92 839.104 490.432 814.784 466.048z"  horiz-adv-x="1024" />

    
    <glyph glyph-name="xiangqing" unicode="&#58939;" d="M809.472 588.9536 214.528 588.9536c-14.6432 0-26.4704 11.8784-26.4704 26.4704 0 14.6432 11.8784 26.4704 26.4704 26.4704L809.472 641.8944c14.6432 0 26.4704-11.8784 26.4704-26.4704C835.9424 600.832 824.064 588.9536 809.472 588.9536L809.472 588.9536zM809.472 588.9536M469.8624 135.7824 469.8624 135.7824l-255.2832 0c-14.6432 0-26.4704 11.8784-26.4704 26.4704 0 14.6432 11.8784 26.4704 26.4704 26.4704l0 0 255.2832 0c14.6432 0 26.4704-11.8784 26.4704-26.4704C496.3328 147.6608 484.4544 135.7824 469.8624 135.7824L469.8624 135.7824zM469.8624 135.7824M809.472 362.3936 214.528 362.3936c-14.6432 0-26.4704 11.8784-26.4704 26.4704 0 14.6432 11.8784 26.4704 26.4704 26.4704L809.472 415.3344c14.6432 0 26.4704-11.8784 26.4704-26.4704C835.9424 374.2208 824.064 362.3936 809.472 362.3936L809.472 362.3936zM809.472 362.3936M749.1584-111.8208l-53.0944 0c-14.6432 0-26.4704 11.8784-26.4704 26.4704s11.8784 26.4704 26.4704 26.4704l52.8896 0c0.9216 0.1024 13.4144 2.1504 46.7456 27.5456 23.04 17.6128 50.6368 42.2912 77.568 69.5296 26.5216 26.7776 51.0976 54.5792 69.12 78.2336 24.9344 32.7168 28.2624 45.4656 28.5696 47.0528L970.9568 669.696c0 86.6304-70.5024 157.1328-157.1328 157.1328L210.0736 826.8288c-86.6304 0-157.1328-70.5024-157.1328-157.1328l0-571.392c0-86.6816 70.5024-157.1328 157.1328-157.1328L467.456-58.8288c14.6432 0 26.4704-11.8784 26.4704-26.4704s-11.8784-26.4704-26.4704-26.4704L210.0736-111.7696C94.2592-111.8208 0-17.5616 0 98.304L0 669.696c0 115.8656 94.2592 210.0736 210.0736 210.0736l603.8016 0C929.7408 879.8208 1024 785.5616 1024 669.696l0-506.6752c0-12.0832-4.1472-31.5392-36.5568-74.8032-19.3536-25.9072-46.08-56.4224-75.1616-85.8624-29.5936-30.0032-60.0576-57.2416-85.7088-76.6976C782.2848-107.9296 761.1904-111.8208 749.1584-111.8208L749.1584-111.8208zM749.1584-111.8208M692.1728-106.3424c-14.6432 0-26.4704 11.8784-26.4704 26.4704l0 133.2736c0 103.8336 84.48 188.3136 188.3136 188.3136l117.0944 0c14.6432 0 26.4704-11.8784 26.4704-26.4704 0-14.6432-11.8784-26.4704-26.4704-26.4704L854.016 188.7744c-74.6496 0-135.3728-60.7232-135.3728-135.3728l0-133.2736C718.6944-94.464 706.816-106.3424 692.1728-106.3424L692.1728-106.3424zM692.1728-106.3424"  horiz-adv-x="1024" />

    
    <glyph glyph-name="server" unicode="&#58902;" d="M285.99333333 460.7l0-145.2 544.3 0L830.29333333 460.7 285.99333333 460.7zM797.09333333 348.70000000000005L391.19333333 348.70000000000005l0 78.3 405.8 0L796.99333333 348.70000000000005zM285.99333333 642.1l0-145.2 544.3 0L830.29333333 642.1 285.99333333 642.1zM797.09333333 530.2l-93.8 0 0 78.7 93.8 0L797.09333333 530.2zM285.99333333 279.20000000000005l0-145.2 544.3 0L830.29333333 279.20000000000005 285.99333333 279.20000000000005zM796.99333333 167.29999999999995L588.09333333 167.29999999999995 588.09333333 246l208.9 0L796.99333333 167.29999999999995 796.99333333 167.29999999999995z"  horiz-adv-x="1099" />

    
    <glyph glyph-name="duihao" unicode="&#58931;" d="M416.832 97.92C400.64 97.92 384.512 104.128 372.16 116.48L119.424 370.24C94.784 395.008 94.784 435.2 119.424 459.968 144.128 484.736 184.128 484.736 208.768 459.968L416.832 251.072 814.4 650.24C839.04 675.072 879.04 675.072 903.744 650.24 928.384 625.472 928.384 585.344 903.744 560.576L461.504 116.48C449.152 104.128 432.96 97.92 416.832 97.92Z"  horiz-adv-x="1024" />

    
    <glyph glyph-name="shuaxin" unicode="&#58926;" d="M511.706311-63.469288c-19.014052 0-34.440393 15.415085-34.440393 34.440393 0 19.025309 15.426341 34.440393 34.440393 34.440393 208.884424 0 378.843304 169.948647 378.843304 378.843304 0 134.846174-72.602551 260.600273-189.488679 328.20295-16.457834 9.517771-22.086018 30.583552-12.57848 47.052642 9.529027 16.457834 30.628578 22.097274 47.063899 12.567223 138.097218-79.856769 223.88507-228.469482 223.88507-387.823839C959.430402 137.376043 758.573815-63.469288 511.706311-63.469288zM322.598302-17.784806c-5.314029 0-10.718109 1.233084-15.763009 3.834328C157.033499 63.260022 63.981197 215.842139 63.981197 384.254803c0 246.87876 200.857611 447.724091 447.724091 447.724091 19.014052 0 34.440393-15.415085 34.440393-34.440393s-15.426341-34.440393-34.440393-34.440393c-208.884424 0-378.843304-169.948647-378.843304-378.843304 0-142.514831 78.746482-271.632537 205.54333-336.970638 16.906042-8.722662 23.543206-29.485545 14.820544-46.391587C347.127975-10.968563 335.065242-17.784806 322.598302-17.784806zM734.61003 628.091274M713.553459 563.857321c-19.014052 0-34.390251 15.415085-34.390251 34.440393L679.163207 747.538737c0 19.025309 15.657608 35.234479 34.671661 35.234479l149.241023 0c19.014052 0 34.440393-16.183588 34.440393-35.208896s-15.426341-35.208896-34.440393-35.208896l-115.13218 0L747.94371 598.296691C747.94371 579.272405 732.567511 563.857321 713.553459 563.857321zM327.997266-24.534534 178.75522-24.534534c-19.014052 0-34.440393 15.364943-34.440393 34.390251 0 19.025309 15.426341 34.390251 34.440393 34.390251l115.136274 0L293.891494 158.825564c0 19.025309 15.376199 34.440393 34.390251 34.440393 19.014052 0 34.390251-15.415085 34.390251-34.440393l0-149.241023C362.67302-9.440767 347.011318-24.534534 327.997266-24.534534z"  horiz-adv-x="1024" />

    
    <glyph glyph-name="date" unicode="&#59056;" d="M346.639 603.516h10.884c16.355 0 22.674 23.698 22.674 40.053v130.721c0 16.355-8.163 34.553-24.487 34.553h-10.884c-16.355 0-23.581-18.198-23.581-34.553v-136.192c0-10.884 9.070-34.582 25.395-34.582zM696.203 603.516h10.884c16.355 0 23.581 23.698 23.581 40.053v130.721c0 16.355-6.32 34.553-22.674 34.553h-10.884c-16.355 0-24.487-18.198-24.487-34.553v-136.192c0-10.884 12.668-34.582 23.581-34.582zM851.471 749.89h-90.931v-57.871h90.931c32.679 0 59.919-32.124 59.919-64.805v-54.477h-768.146v54.477c0 32.679 27.238 64.805 59.919 64.805h89.117v57.871h-83.675c-65.39 0-121.71-68.198-121.71-128.117v-528.443c0-59.919 56.349-132.681 121.71-132.681h648.309c59.919 0 107.081 67.321 107.081 132.681v528.443c-5.413 59.919-47.133 128.117-112.523 128.117zM908.317 98.743c0-38.122-18.695-79.989-56.847-79.989h-642.838c-32.681 0-63.577 41.867-63.577 74.547v424.96h763.29v-419.518zM643.569 749.89h-234.379v-57.871h234.379v57.871z"  horiz-adv-x="1024" />

    
    <glyph glyph-name="ai03" unicode="&#58997;" d="M440.696536 226.426195l211.429387 158.583808-211.429387 158.605298L440.696536 226.426195zM511.180843 737.403912c-193.814194 0-352.396979-158.582785-352.396979-352.394932 0-193.791681 158.583808-352.398002 352.396979-352.398002 193.814194 0 352.398002 158.606321 352.398002 352.398002C863.577822 578.821127 704.994014 737.403912 511.180843 737.403912M511.180843 103.095285c-155.059542 0-281.912671 126.854153-281.912671 281.913695 0 155.059542 126.854153 281.935184 281.912671 281.935184 155.059542 0 281.913695-126.875642 281.913695-281.935184C793.094538 229.949438 666.239362 103.095285 511.180843 103.095285"  horiz-adv-x="1024" />

    
    <glyph glyph-name="xiugaimima" unicode="&#58905;" d="M355.71712 337.03936c-0.512-0.65536-1.04448-1.37216-1.26976-2.23232l-40.18176-148.41856c-2.33472-8.64256 0.06144-17.98144 6.41024-24.53504 4.75136-4.64896 11.01824-7.22944 17.67424-7.22944 2.21184 0 4.42368 0.26624 6.59456 0.86016l146.30912 40.18176c0.22528 0 0.32768-0.22528 0.49152-0.22528 1.69984 0 3.33824 0.63488 4.58752 1.92512l391.168 394.0352c11.63264 11.71456 18.00192 27.68896 18.00192 45.056 0 19.6608-8.2944 39.36256-22.79424 53.94432l-36.94592 37.2736c-14.49984 14.62272-34.05824 22.97856-53.5552 22.97856-17.24416 0-33.0752-6.41024-44.76928-18.10432L356.29056 338.39104C355.88096 338.0224 356.02432 337.46944 355.71712 337.03936L355.71712 337.03936zM849.22368 630.00576l-38.85056-39.1168-62.99648 64.47104 38.31808 38.56384c6.0416 6.12352 17.8176 5.24288 24.73984-1.76128l36.94592-37.29408c3.87072-3.91168 6.08256-9.05216 6.08256-14.15168C853.44256 636.5184 851.92704 632.7296 849.22368 630.00576L849.22368 630.00576zM425.28768 330.83392l282.25536 284.40576 62.99648-64.53248L488.83712 266.89536 425.28768 330.83392 425.28768 330.83392 425.28768 330.83392M373.84192 215.552l20.39808 75.42784 54.39488-54.80448L373.84192 215.552 373.84192 215.552 373.84192 215.552M874.00448 473.84576c-14.82752 0-26.97216-12.14464-27.01312-27.2384l0-326.41024c0-51.95776-51.32288-75.85792-75.63264-75.85792L236.40064 44.3392c-34.0992 0-69.46816 33.71008-75.6736 96.33792L160.72704 637.89056c0 77.80352 56.54528 75.89888 75.6736 75.89888l356.352 0c14.86848 0 26.95168 12.1856 26.95168 27.17696 0 14.97088-12.0832 27.17696-26.95168 27.17696l-360.448 0c-46.63296 0-125.52192-29.22496-125.52192-105.6768l0-525.94688c0-102.83008 64.3072-146.61632 125.52192-146.61632l543.15008 0c69.0176 0 125.5424 43.17184 125.5424 126.13632L900.99712 446.75072C900.89472 461.70112 888.77056 473.84576 874.00448 473.84576L874.00448 473.84576z"  horiz-adv-x="1024" />

    
    <glyph glyph-name="yousanjiao" unicode="&#58900;" d="M384.30607 639.795611l0-512.41186 320.259338 256.206443L384.30607 639.795611z"  horiz-adv-x="1024" />

    
    <glyph glyph-name="tuikuan" unicode="&#58889;" d="M395.815385 592.580923 490.692923 592.580923C495.655385 576.590769 501.720615 564.460308 517.159385 538.545231L598.803692 398.414769 680.487385 537.993846C695.926154 563.908923 702.542769 577.693538 706.953846 592.580923L802.382769 592.580923C795.214769 583.207385 773.159385 551.778462 763.234462 535.788308L687.104 414.404923 717.981538 414.404923C742.793846 414.404923 757.720615 415.507692 775.916308 418.816L775.916308 355.918769C757.169231 359.227077 742.242462 360.329846 717.981538 360.329846L653.430154 360.329846 635.234462 331.657846 635.234462 315.667692 716.878769 315.667692C741.691077 315.667692 755.515077 316.770462 774.813538 320.078769L774.813538 257.181538C756.066462 260.489846 741.139692 261.592615 716.878769 261.592615L635.234462 261.592615 635.234462 224.059077C635.234462 192.630154 636.337231 175.537231 639.645538 153.442462L558.001231 153.442462C560.758154 174.985846 562.412308 197.041231 562.412308 224.059077L562.412308 261.592615 479.113846 261.592615C454.301538 261.592615 439.926154 260.489846 421.179077 257.181538L421.179077 320.078769C440.477538 316.770462 453.750154 315.667692 479.113846 315.667692L562.412308 315.667692 562.412308 332.209231 544.216615 360.329846 480.216615 360.329846C454.852923 360.329846 441.028923 359.227077 422.281846 355.918769L422.281846 418.816C440.477538 415.507692 454.852923 414.404923 480.216615 414.404923L511.094154 414.404923 434.412308 535.788308C418.422154 560.600615 404.086154 582.104615 395.815385 592.580923ZM591.990154-128C440.162462-128 304.167385-61.518769 210.432 43.441231L272.699077 91.923692C351.901538 5.356308 465.447385-49.230769 591.990154-49.230769 831.251692-49.230769 1025.220923 144.738462 1025.220923 384 1025.220923 623.261538 831.251692 817.230769 591.990154 817.230769 396.8 817.230769 232.172308 687.970462 178.057846 510.464L243.436308 579.465846C257.378462 594.156308 279.630769 594.510769 293.139692 580.253538 306.609231 565.996308 306.254769 542.523077 292.312615 527.832615L166.124308 394.673231C156.396308 384.393846 142.651077 381.597538 130.638769 385.417846 116.224 382.345846 101.021538 388.686769 93.262769 402.983385L5.12 565.051077C-4.608 582.971077 1.142154 605.853538 18.038154 616.211692 34.894769 626.530462 56.438154 620.386462 66.166154 602.505846L102.872615 535.000615C167.345231 744.014769 361.826462 896 591.990154 896 874.771692 896 1103.990154 666.781538 1103.990154 384 1103.990154 101.218462 874.771692-128 591.990154-128Z"  horiz-adv-x="1105" />

    
    <glyph glyph-name="dongjie1" unicode="&#58949;" d="M532.674878 420.653805l225.338165 0 0 36.694737L532.674878 457.348542 532.674878 420.653805zM758.013043 567.435823 532.674878 567.435823l0-36.69576 225.338165 0L758.013043 567.435823zM148.256602 89.684858c-26.577309 0-48.124044 21.439288-48.124044 47.913243L100.132558 684.962539c0 26.468838 21.546735 47.90915 48.124044 47.90915l690.047092 0c26.576285 0 48.139393-21.440311 48.139393-47.90915l0-333.524143c13.781888-8.838296 26.405393-19.265786 37.622876-31.048133L924.065963 697.697585c0 39.703257-32.328289 71.869864-72.225975 71.869864L135.457088 769.567449c-39.896662 0-72.192206-32.166607-72.192206-71.869864l0-572.832484c0-39.695071 32.295544-71.870888 72.192206-71.870888L617.313557 52.994214c-9.43079 11.261485-17.673521 23.562649-24.454972 36.690644L148.256602 89.684858zM459.987393 231.521237c8.92323 0 16.149818 7.30129 16.149818 16.296151 0 2.610454-0.61603 5.043876-1.699712 7.262404-8.17417 57.045227-45.620014 104.527658-96.493681 126.437667 29.995151 20.569478 49.715285 55.219649 49.715285 94.569866 0 63.042825-50.630121 114.136503-113.106034 114.136503-62.446237 0-113.076358-51.092655-113.076358-114.136503 0-39.350217 19.720134-74.000388 49.716308-94.525863-50.871621-21.910009-88.317465-69.436442-96.489588-126.481669-1.087774-2.218528-1.699712-4.65195-1.699712-7.262404 0-8.995885 7.224542-16.296151 16.148795-16.296151 8.92016 0 16.144702 7.30129 16.144702 16.296151l0 1.653663c-0.823761 52.133358 57.868989 112.481817 129.255853 112.481817 71.420633 0 129.289622-60.48149 129.289622-112.481817l0-1.653663C443.841667 238.822526 451.067232 231.521237 459.987393 231.521237zM314.552046 394.565636c-44.618197 0-80.781838 36.518728-80.781838 81.522712 0 45.038776 36.163641 81.523735 80.781838 81.523735 44.633546 0 80.817654-36.484959 80.817654-81.523735C395.368676 431.041386 359.184569 394.565636 314.552046 394.565636zM913.472698 273.90044c-62.987566 62.929238-165.468612 62.920028-228.451062-0.00614-62.984497-62.927191-62.999846-165.31614-0.01228-228.246401 62.997799-62.939471 165.514661-62.956867 228.498134-0.030699C976.49301 108.544391 976.47152 210.960968 913.472698 273.90044zM893.89992 222.818017l-0.109494-0.109494L737.353514 66.416921c-2.944052-2.943029-7.762801-2.943029-10.707876 0l-15.680121 15.665795c-2.946099 2.942005-2.946099 7.756661 0 10.69969L867.401406 249.072985c2.946099 2.943029 7.763824 2.943029 10.707876 0l15.681144-15.665795 0.109494-0.109494C896.77234 230.384343 896.77234 225.688391 893.89992 222.818017zM532.674878 310.565501l91.569532 0 0 36.690644-91.569532 0L532.674878 310.565501z"  horiz-adv-x="1024" />

    
    <glyph glyph-name="jiaose" unicode="&#58957;" d="M583.998674 414.452444c57.999258 26.399662 94.898785 83.59893 94.898785 147.098117 0 89.798851-68.399124 154.398024-158.397972 154.398024s-158.997965-65.199165-158.997965-154.898017c0-65.59916 38.099512-119.49847 98.698737-145.098143 26.399662-11.299855 80.098975-16.699786 123.798415-1.499981z m-137.398241-56.299279c-3.299958 1.099986-6.99991 1.799977-10.299869 3.199959-80.298972 33.799567-136.498253 112.298563-136.498252 199.19745 0 118.998477 92.398817 219.697188 220.397179 219.697188 130.698327 0 220.397179-100.398715 220.397178-219.297193 0-84.198922-53.399316-161.997926-130.198333-197.097477-59.699236-25.999667-119.198474-20.499738-163.797903-5.699927z m-244.196875-388.795024c-28.89963 0.099999-58.899246 13.099832-74.099051 36.999527-14.699812 23.099704-12.899835 55.49929-1.299983 80.198973 40.299484 85.998899 145.798134 230.797046 399.99488 234.696996 261.396654 4.799939 356.495437-150.298076 389.895009-242.696893 8.799887-24.299689 10.199869-46.399406-4.299945-72.899067-17.099781-27.499648-46.699402-34.199562-74.099052-34.199562h-66.299151c-14.699812 0-26.399662 14.999808-26.399662 29.699619s11.999846 27.899643 26.599659 27.899643h67.899131c10.199869 0 15.499802 0.199997 21.09973 8.099897 2.899963 4.099948 6.299919 13.199831 2.399969 23.899694-34.899553 96.498765-128.89835 201.59742-338.395668 201.597419-205.897364 0-293.096248-105.49865-338.395668-193.297526-3.89995-8.299894-4.69994-20.29974 0.299996-27.999641 5.399931-8.499891 11.499853-12.199844 22.099717-12.199844h450.79423c14.699812 0 27.699645-14.599813 27.699645-29.299625 0-14.699812-11.999846-30.399611-26.699658-30.399611"  horiz-adv-x="1024" />

    
    <glyph glyph-name="user" unicode="&#58976;" d="M883.028-66.839h-762.821l-5.103 18.427c-9.125 33.030-13.776 66.388-13.776 99.091 0 199.743 168.372 339.254 409.465 339.254 233.98 0 391.188-136.347 391.188-339.254 0-32.754-4.676-66.112-13.827-99.117l-5.13-18.401zM159.020-16.565h685.271c4.901 22.523 7.417 45.095 7.417 67.267 0 175.535-133.806 288.979-340.914 288.979-214.85 0-359.19-116.137-359.19-288.979 0-22.145 2.49-44.72 7.417-67.267zM501.644 347.426c-139.99 0-253.889 114.878-253.889 256.075 0 141.223 113.899 256.125 253.889 256.125s253.889-114.905 253.889-256.125c0-141.196-113.899-256.075-253.889-256.075zM501.644 809.352c-112.263 0-203.613-92.331-203.613-205.851 0-113.471 91.348-205.801 203.613-205.801 112.263 0 203.613 92.331 203.613 205.801 0 113.521-91.348 205.851-203.613 205.851z"  horiz-adv-x="1024" />

    
    <glyph glyph-name="sanjiao" unicode="&#58921;" d="M577.34244759 577.6194312299999L854.27069118 578.46395178 1132.64772354 576.00562055C1149.56967773 576.00562055 1164.44504617 575.08991449 1169.38759333 571.3057519500001 1181.3208892 562.1697245099999 1180.01689833 543.5093845900001 1169.38759333 532.92699561L874.7373659 210.29030309999996C869.12098186 204.64965099999995 861.62465127 202.23823833999995 854.24804107 202.60063749000005 846.86981265 202.23742929000002 839.39694139 204.64965099999995 833.75628902 210.29030309999996L539.10687147 532.92618566C528.50183174 543.5085759 527.34425653 561.99823136 539.10687147 571.27986612 544.57926528 575.59549462 554.10357768 577.6194312299999 577.34244759 577.6194312299999L577.34244759 577.6194312299999Z"  horiz-adv-x="1707" />

    
    <glyph glyph-name="guanjunhuojiang-copy" unicode="&#58881;" d="M549.559 295.131c95.086 21.285 179.639 120.539 239.982 234.825 15.397-4.133 31.561-6.327 48.274-6.327 102.839 0 186.185 83.346 186.185 186.185 0 102.839-83.346 186.185-186.185 186.185-47.214 0-90.331-17.591-123.136-46.555-124.014 0-281.015 0-405.358 0-32.805 28.965-75.922 46.555-123.136 46.555-102.839 0-186.185-83.346-186.185-186.185 0-102.839 83.346-186.185 186.185-186.185 16.713 0 32.878 2.194 48.274 6.327 60.343-114.286 144.896-213.541 239.982-234.825 4.023-17.189 6.546-34.487 6.546-50.761 0-81.079-62.062-186.185-62.062-186.185h186.149c0 0-62.062 105.106-62.062 186.185 0 16.274 2.523 33.573 6.546 50.761zM879.799 792.942c30.318-15.36 51.127-46.811 51.127-83.127 0-51.419-41.691-93.074-93.111-93.074-2.67 0-5.339 0.11-7.936 0.329 24.869 61.806 42.167 123.429 49.92 175.872zM194.121 617.070c-2.597-0.219-5.266-0.329-7.936-0.329-51.419 0-93.111 41.655-93.111 93.074 0 36.315 20.809 67.767 51.127 83.127 7.753-52.443 25.051-114.066 49.92-175.872zM325.815-14.885c0 40.375 33.061 73.070 73.143 73.070h226.085c40.411 0 73.143-32.439 73.143-73.070v-113.115h-372.37v113.115zM512 524.8l-86.309-47.726 16.494 101.047-69.815 71.57 96.475 14.738 43.154 91.941 43.154-91.941 96.475-14.738-69.815-71.57 16.494-101.047-86.309 47.726z"  horiz-adv-x="1024" />

    
    <glyph glyph-name="zijinliushuimingxi" unicode="&#58927;" d="M248.36096 830.8736h66.49856V873.71776c0 11.12064 11.12064 22.24128 22.24128 22.24128h4.23936c11.12064 0 22.24128-11.12064 22.24128-22.24128V830.8736h143.40096V873.71776c0 11.12064 11.12064 22.24128 22.24128 22.24128h4.23936c11.12064 0 22.24128-11.12064 22.24128-22.24128V830.8736h143.40096V873.71776c0 11.12064 11.12064 22.24128 22.24128 22.24128h4.23936c11.12064 0 22.24128-11.12064 22.24128-22.24128V830.8736h66.49856c87.71584 0 159.49824-71.7824 159.49824-159.49824v-639.87712c0-87.71584-71.7824-159.49824-159.49824-159.49824H248.36096c-87.71584 0-159.49824 71.7824-159.49824 159.49824V671.37536c0 87.73632 71.7824 159.49824 159.49824 159.49824z m38.74816-722.67776h488.48896c31.70304 0 31.76448-44.50304 0-44.50304H287.10912c-31.70304 0-31.76448 44.50304 0 44.50304z m0 176.98816h488.48896c31.70304 0 31.76448-44.50304 0-44.50304H287.10912c-31.70304 0.02048-31.76448 44.50304 0 44.50304z m0 177.00864h488.48896c31.70304 0 31.76448-44.50304 0-44.50304H287.10912c-31.70304 0-31.76448 44.50304 0 44.50304z m0 176.98816h488.48896c31.70304 0 31.76448-44.50304 0-44.50304H287.10912c-31.70304 0-31.76448 44.50304 0 44.50304z m-38.74816 147.21024c-63.24224 0-114.9952-51.75296-114.9952-114.9952v-639.87712c0-63.24224 51.75296-114.9952 114.9952-114.9952h565.98528c63.24224 0 114.9952 51.75296 114.9952 114.9952V671.37536c0 63.24224-51.75296 114.9952-114.9952 114.9952H248.36096v0.02048z"  horiz-adv-x="1024" />

    
    <glyph glyph-name="xunhuan" unicode="&#58952;" d="M670.925 725.059l-25.001-58.9 164.127 52.070-76.554 154.23-26.045-61.348c-160.548 69.801-352.952 46.602-493.455-75.535l61.373-70.482c112.727 97.997 266.644 116.413 395.556 59.965zM353.101 42.936l25.001 58.906-164.127-52.070 76.559-154.23 26.040 61.353c160.548-69.811 352.957-46.612 493.466 75.53l-61.379 70.482c-112.732-97.997-266.655-116.413-395.561-59.971zM170.952 543.775l58.9-25.001-52.070 164.127-154.23-76.559 61.348-26.040c-69.801-160.543-46.607-352.952 75.53-493.46l70.482 61.373c-97.987 112.732-116.403 266.65-59.96 395.561zM939.121 189.414c69.806 160.553 46.612 352.957-75.535 493.466l-70.477-61.379c97.992-112.727 116.408-266.65 59.965-395.556l-58.906 25.006 52.076-164.132 154.225 76.559-61.348 26.035z"  horiz-adv-x="1024" />

    
    <glyph glyph-name="shuhuiguize" unicode="&#59086;" d="M732.8 371.2c3.2 6.4 3.2 16 0 25.6-3.2 3.2-3.2 6.4-6.4 9.6l-217.6 217.6c-12.8 12.8-32 12.8-44.8 0s-12.8-32 0-44.8l163.2-163.2H32c-19.2 0-32-12.8-32-32 0-16 12.8-32 32-32h595.2l-163.2-163.2c-12.8-12.8-12.8-32 0-44.8 6.4-6.4 16-9.6 22.4-9.6s16 3.2 22.4 9.6l217.6 217.6c3.2 3.2 6.4 6.4 6.4 9.6zM851.2-96H230.4c-96 0-172.8 76.8-172.8 172.8v96c0 16 12.8 32 32 32s32-12.8 32-32v-96c0-60.8 48-108.8 108.8-108.8h620.8c60.8 0 108.8 48 108.8 108.8V691.2C960 752 912 800 851.2 800H230.4C169.6 800 118.4 752 118.4 691.2v-102.4c0-16-12.8-32-32-32s-32 12.8-32 32V691.2c0 96 76.8 172.8 172.8 172.8h620.8c96 0 172.8-76.8 172.8-172.8v-617.6c3.2-92.8-73.6-169.6-169.6-169.6z"  horiz-adv-x="1024" />

    
    <glyph glyph-name="953caidan_liucheng" unicode="&#59018;" d="M510.207 588.30666667c61.62 0 111.574 49.953 111.574 111.574 0 61.62-49.953 111.573-111.574 111.573-61.62 0-111.573-49.953-111.573-111.573 0-61.62 49.954-111.574 111.573-111.574z m0 167.219c30.683 0 55.646-24.963 55.646-55.646s-24.962-55.647-55.646-55.647c-30.683 0-55.645 24.963-55.645 55.647s24.962 55.646 55.645 55.646z m-335.51-463.422c-61.62 0-111.573-49.953-111.573-111.574 0-61.62 49.953-111.574 111.573-111.574s111.574 49.954 111.574 111.574-49.953 111.574-111.574 111.574z m0-167.219c-30.682 0-55.646 24.962-55.646 55.646 0 30.683 24.963 55.646 55.646 55.646s55.646-24.962 55.646-55.646-24.963-55.646-55.646-55.646zM845.95 292.10366667000005c-61.62 0-111.573-49.953-111.573-111.574 0-61.62 49.953-111.574 111.573-111.574s111.574 49.954 111.574 111.574-49.953 111.574-111.574 111.574z m0-167.219c-30.683 0-55.646 24.962-55.646 55.646 0 30.683 24.963 55.646 55.646 55.646s55.647-24.962 55.647-55.646-24.964-55.646-55.647-55.646zM509.425-4.949333329999945c-79.714 0-157.406 27.896-218.755 78.526l-35.611-43.12c71.358-58.904 161.694-91.333 254.365-91.333 93.463 0 184.4 32.934 256.044 92.726l-35.829 42.928c-61.62-51.408-139.819-79.727-220.214-79.727z m343.95 343.95h55.928c0 154.827-90.705 297.158-231.098 362.603l-23.622-50.685c120.758-56.31 198.793-178.734 198.793-311.917zM364.268 650.91966667l-23.622 50.685C200.265 636.15866667 109.56 493.82666667 109.56 339.00166666999996h55.928c0 133.183 78.034 255.621 198.779 311.917z"  horiz-adv-x="1024" />

    
    <glyph glyph-name="zhuanrangzhuanqu1" unicode="&#59236;" d="M808.96 285.013333c0 17.066667-13.653333 30.72-30.72 30.72H235.52 225.28c-3.413333 0-3.413333 0-6.826667-3.413333-3.413333 0-3.413333-3.413333-3.413333-3.413333-3.413333 0-3.413333-3.413333-3.413333-3.413334s0-3.413333-3.413334-3.413333c0-3.413333-3.413333-3.413333-3.413333-6.826667V274.773333c0-3.413333 0-3.413333 3.413333-6.826666l3.413334-3.413334c0-3.413333 3.413333-3.413333 3.413333-6.826666l139.946667-109.226667c6.826667-3.413333 13.653333-6.826667 20.48-6.826667 10.24 0 20.48 3.413333 23.893333 13.653334 10.24 13.653333 6.826667 34.133333-6.826667 44.373333l-68.266666 51.2h450.56c20.48 0 34.133333 13.653333 34.133333 34.133333zM805.546667 472.746667l-3.413334 3.413333c-3.413333 3.413333-6.826667 6.826667-10.24 6.826667l-126.293333 98.986666c-13.653333 10.24-34.133333 6.826667-44.373333-6.826666-10.24-13.653333-6.826667-34.133333 6.826666-44.373334l58.026667-44.373333H235.52c-17.066667 0-30.72-13.653333-30.72-30.72s13.653333-30.72 30.72-30.72h529.066667c6.826667-3.413333 13.653333-6.826667 20.48-6.826667 10.24 0 20.48 3.413333 23.893333 13.653334 13.653333 10.24 10.24 30.72-3.413333 40.96zM993.28 513.706667c17.066667 0 30.72 13.653333 30.72 30.72V609.28C1024 766.293333 894.293333 896 737.28 896H286.72C129.706667 896 0 766.293333 0 609.28v-447.146667C0 1.706667 129.706667-128 286.72-128h447.146667c160.426667 0 286.72 129.706667 286.72 286.72v160.426667c0 17.066667-13.653333 30.72-30.72 30.72s-30.72-13.653333-30.72-30.72v-160.426667c0-122.88-98.986667-225.28-225.28-225.28H286.72c-122.88 0-225.28 98.986667-225.28 225.28V609.28c0 122.88 98.986667 225.28 225.28 225.28h447.146667c122.88 0 225.28-98.986667 225.28-225.28v-64.853333c0-17.066667 13.653333-30.72 34.133333-30.72z"  horiz-adv-x="1024" />

    
    <glyph glyph-name="tianjia" unicode="&#58886;" d="M740.010667 363.52H283.989333c-11.605333 0-20.48 8.874667-20.48 20.48s8.874667 20.48 20.48 20.48h456.021334c11.605333 0 20.48-8.874667 20.48-20.48s-8.874667-20.48-20.48-20.48zM512 135.509333c-11.605333 0-20.48 8.874667-20.48 20.48V612.010667c0 11.605333 8.874667 20.48 20.48 20.48s20.48-8.874667 20.48-20.48v-456.021334c0-11.605333-8.874667-20.48-20.48-20.48zM826.026667 11.264H197.973333c-32.768 0-59.392 26.624-59.392 59.392V698.026667c0 32.768 26.624 59.392 59.392 59.392h628.053334c32.768 0 59.392-26.624 59.392-59.392v-628.053334c-1.365333-33.450667-27.306667-58.709333-59.392-58.709333zM197.973333 716.458667c-9.557333 0-18.432-8.874667-18.432-18.432v-627.370667c0-9.557333 8.874667-18.432 18.432-18.432h628.053334c10.24 0 18.432 8.192 18.432 18.432V698.026667c0 9.557333-8.874667 18.432-18.432 18.432H197.973333z"  horiz-adv-x="1024" />

    
    <glyph glyph-name="jinbi" unicode="&#58903;" d="M511.623 120.101c-109.764 0-198.743 44.515-198.743 99.425v0 55.92c0-54.908 88.978-89.064 198.743-89.064 109.747 0 198.724 34.157 198.724 89.064v-55.92c0-54.907-88.98-99.424-198.724-99.424v0zM511.623 219.525c-109.764 0-198.743 44.508-198.743 99.414v55.923c0-54.907 88.978-89.060 198.743-89.060 109.747 0 198.724 34.154 198.724 89.060v-55.923c0-54.907-88.98-99.414-198.724-99.414v0zM511.623 318.939c-109.764 0-198.743 44.511-198.743 99.422v55.921c0-54.906 88.978-89.062 198.743-89.062 109.747 0 198.724 34.157 198.724 89.062v-55.921c0-54.91-88.98-99.422-198.724-99.422v0zM511.623 418.361c-109.764 0-198.743 44.514-198.743 99.424v33.134c0 54.911 88.978 99.424 198.743 99.424 109.747 0 198.724-44.513 198.724-99.424v-33.134c0-54.907-88.98-99.424-198.724-99.424v0z"  horiz-adv-x="1024" />

    
    <glyph glyph-name="zhuxiao_logout" unicode="&#58896;" d="M843.294118 52.705882a60.235294 60.235294 0 0 0-60.235294-60.235294H180.705882a60.235294 60.235294 0 0 0-60.235294 60.235294V655.058824a60.235294 60.235294 0 0 0 60.235294 60.235294h180.705883l200.764235 120.470588H120.470588a120.470588 120.470588 0 0 1-120.470588-120.470588v-722.82353a120.470588 120.470588 0 0 1 120.470588-120.470588h722.82353a120.470588 120.470588 0 0 1 120.470588 120.470588V489.411765l-120.470588-90.352941V52.705882zM661.624471 717.703529c-0.602353-6.083765-0.903529-5.059765-1.024 0.361412-29.696 0.240941-404.299294-29.515294-419.900236-490.134588 4.457412-23.070118 80.775529 304.128 421.76753 371.772235C662.588235 594.823529 662.588235 474.352941 662.588235 474.352941l301.176471 180.705883-301.176471 180.705882c0.963765 0.602353-2.288941-95.774118-1.987764-117.699765 2.228706-0.060235 3.011765-0.180706 1.024-0.361412z m-419.900236-467.06447a242.326588 242.326588 0 0 1-0.963764-16.564706c0.060235 5.842824 0.843294 10.842353 0.963764 16.564706z"  horiz-adv-x="1024" />

    
    <glyph glyph-name="add" unicode="&#58883;" d="M788.281 347.506h-540.995c-16.8 0-30.4 13.6-30.4 30.4 0 16.8 13.6 30.4 30.4 30.4h540.995c16.8 0 30.4-13.6 30.4-30.4 0-16.7-13.6-30.4-30.4-30.4zM517.684 76.809c-16.8 0-30.4 13.6-30.4 30.4v541.495c0 16.8 13.6 30.4 30.4 30.4s30.4-13.6 30.4-30.4v-541.495c0.1-16.8-13.6-30.4-30.4-30.4zM512.484-127.989c-69.099 0-136.199 13.5-199.298 40.3-60.999 25.8-115.799 62.699-162.698 109.799-47.1 47-83.999 101.699-109.799 162.798-26.7 63.199-40.2 130.199-40.2 199.298s13.6 136.199 40.2 199.298c25.8 60.699 62.699 115.599 109.799 162.598s101.699 83.999 162.698 109.599c63.099 26.7 130.199 40.3 199.298 40.3s136.199-13.5 199.298-40.3c60.999-25.8 115.799-62.599 162.698-109.599 47.1-47 83.999-101.699 109.799-162.798 26.7-63.199 40.2-130.199 40.2-199.298 0-92.699-25.1-183.498-72.499-262.697-8.7-14.5-27.3-19.1-41.7-10.5-14.4 8.7-19 27.3-10.5 41.8 41.7 69.699 63.799 149.699 63.899 231.298 0 60.899-11.9 119.899-35.4 175.498-22.7 53.799-55.299 101.899-96.699 143.399s-89.799 73.999-143.499 96.699c-55.599 23.6-114.699 35.4-175.698 35.4s-119.999-11.9-175.698-35.4c-53.599-22.7-101.799-55.199-143.199-96.699s-73.999-89.599-96.699-143.399c-23.5-55.599-35.4-114.699-35.4-175.498 0-60.899 11.9-119.899 35.4-175.498 22.7-53.799 55.299-101.899 96.699-143.399 41.4-41.4 89.799-73.999 143.499-96.699 55.599-23.6 114.699-35.4 175.698-35.4 90.899 0 178.498 26.9 253.398 77.799 13.9 9.4 32.8 5.9 42.3-8 9.4-13.9 5.9-32.9-8-42.3-85.199-57.899-184.698-88.399-287.897-88.399z"  horiz-adv-x="1024" />

    
    <glyph glyph-name="zidingyishuju" unicode="&#58932;" d="M693.632 260.288c0-17.728 14.336-32.064 32.064-32.064h256.64a32.128 32.128 0 0 1 0 64.192h-256.64a32.128 32.128 0 0 1-32.128-32.128zM982.272 156.224H610.56a32.128 32.128 0 1 1 0-64.192h371.84a32.128 32.128 0 0 1 0 64.192zM982.272 19.392H482.56a32.128 32.128 0 1 1 0-64.192h499.84a32.128 32.128 0 0 1 0 64.192zM91.968 273.088l47.36-47.36 184.192-184.128 502.464 502.4c42.496 42.56 38.592 115.648-8.768 162.944l-67.52 67.584c-47.36 47.36-120.448 51.328-162.944 8.832L84.288 280.832 10.752 11.584a33.792 33.792 0 0 1 41.536-41.6l269.312 73.408-55.104 55.168-174.912-47.744 47.68 174.912-47.36 47.36zM640 730.048c16.128 16.128 43.904 14.592 61.824-3.328L769.408 659.2c17.92-18.048 19.456-45.76 3.264-61.888L695.68 520.32 562.944 652.928 640 730.048zM509.76 599.68l132.672-132.672L318.08 142.72 185.408 275.392l324.352 324.352z"  horiz-adv-x="1024" />

    
    <glyph glyph-name="lishijilu" unicode="&#58907;" d="M537.6 870.4c-179.2 0-339.2-96-419.2-246.4L0 742.4v-332.8h332.8l-144 144C256 681.6 384 768 537.6 768c211.2 0 384-172.8 384-384s-172.8-384-384-384c-169.6 0-307.2 108.8-364.8 256H67.2c57.6-204.8 246.4-358.4 470.4-358.4C809.6-102.4 1024 118.4 1024 384S803.2 870.4 537.6 870.4z m-76.8-256V352l240-144 41.6 67.2-204.8 121.6V611.2h-76.8z"  horiz-adv-x="1024" />

    
    <glyph glyph-name="qiehuanzuhu" unicode="&#58993;" d="M950.093 408.228l-179.775 173.078c-14.382 13.851-35.955 13.851-50.336 0-14.382-13.842-14.382-34.614 0-48.465l118.647-114.228h-345.168c-21.573 0-35.955-13.842-35.955-34.614s14.382-34.614 35.955-34.614h345.168l-118.639-114.228c-14.382-13.851-14.382-34.623 0-48.465 7.192-6.93 14.382-10.386 25.164-10.386 10.792 0 17.982 3.465 25.173 10.386l179.775 176.535s0 3.465 3.6 3.465c10.782 10.386 10.782 31.149-3.6 41.535zM853.010 141.693c-21.573 0-35.955-13.851-35.955-34.614v-69.237c0-20.763-14.382-34.614-35.955-34.614h-611.235c-21.573 0-35.955 13.851-35.955 34.614v692.317c0 20.763 14.382 34.614 35.955 34.614h611.235c21.573 0 35.955-13.851 35.955-34.614v-69.237c0-20.764 14.382-34.614 35.955-34.614s35.955 13.851 35.955 34.614v69.237c0 58.842-46.736 103.842-107.865 103.842h-611.235c-61.119 0-107.865-45-107.865-103.842v-692.317c0-58.842 46.747-103.842 107.865-103.842h611.235c61.128 0 107.865 45 107.865 103.842v69.237c0 20.764-14.382 34.614-35.955 34.614z"  horiz-adv-x="1024" />

    
    <glyph glyph-name="msnui-rmb" unicode="&#58898;" d="M449.144 221.712h-126.807q-17.739 1.315-27.268 14.783t-11.498 29.894q1.971 16.425 11.498 26.938t27.268 11.827h126.807v41.393l-126.807 0.657q-17.739 1.315-27.268 12.484t-11.498 28.252q1.971 16.425 11.498 26.938t27.268 11.827h94.613l-88.043 155.060q-6.571 7.884-12.484 20.040t-5.256 26.61q3.285 18.398 13.141 29.895t36.794 14.783q15.769-1.314 28.252-10.841t20.368-20.696l99.869-182.655 109.723 183.969q7.884 11.169 20.368 19.711t28.252 10.512q9.855-0.657 18.068-2.628t14.455-6.571 10.512-13.141 6.241-22.34q0-19.054-13.141-36.136l-101.84-165.573h96.585q17.083-1.315 26.938-11.827t11.169-26.938q-1.315-17.083-11.498-28.909t-27.268-13.141l-125.494-0.656v-40.079h126.15q17.083-1.314 26.938-13.141t11.169-28.252q-1.315-17.083-11.169-28.582t-26.938-12.812l-126.15 0.656v-69.644q-2.628-55.848-61.104-55.848-28.909 0-45.008 13.797t-17.41 42.051v68.332z"  horiz-adv-x="1024" />

    
    <glyph glyph-name="ziyuan" unicode="&#58934;" d="M1010.467-128h-970.996c-21.799 0-39.471 17.672-39.471 39.471v698.079c0 158.202 128.248 286.449 286.449 286.449h970.996c21.799 0 39.471-17.672 39.471-39.471l0-698.079c-0-158.202-128.248-286.449-286.449-286.449-0 0-0 0-0 0zM79.507-48.493h930.96c114.163 0.32 206.624 92.781 206.943 206.913l0 658.074h-930.96c-114.163-0.32-206.624-92.781-206.943-206.913zM44.546 668.194h1217.41v-187.771h-1217.41zM432.493 34.396h-235.137c-21.799 0-39.471 17.672-39.471 39.471v155.066c0 21.799 17.672 39.471 39.471 39.471l235.137 0c21.799-0 39.471-17.672 39.471-39.471v-155.066c-0-21.799-17.672-39.471-39.471-39.471-0 0-0 0-0 0zM237.392 113.339h157.322v76.123h-157.322z"  horiz-adv-x="1296" />

    
    <glyph glyph-name="biaoqian" unicode="&#58887;" d="M695.7 777.4H326.9c-58.2 0-105.4-47.2-105.4-105.4v-579.6c0-58.2 47.2-105.4 105.4-105.4l184.4 184.4L695.7-13c58.2 0 105.4 47.2 105.4 105.4V672c0 58.2-47.1 105.4-105.4 105.4z"  horiz-adv-x="1024" />

    
    <glyph glyph-name="yue" unicode="&#58951;" d="M512 62.4c-13.6 0-24 10.4-24 24v67.2H384c-13.6 0-24 10.4-24 24s10.4 24 24 24h104v60.8H384c-13.6 0-24 10.4-24 24s10.4 24 24 24h111.2L384 421.6c-4.8 4.8-7.2 10.4-7.2 16.8s2.4 12.8 7.2 16.8c4.8 4.8 10.4 7.2 16.8 7.2s12.8-2.4 16.8-7.2L512 361.6 605.6 456c4.8 4.8 10.4 7.2 16.8 7.2s12.8-2.4 16.8-7.2c9.6-9.6 9.6-24.8 0-33.6l-110.4-112H640c13.6 0 24-10.4 24-24s-10.4-24-24-24H536v-60.8h104c13.6 0 24-10.4 24-24s-10.4-24-24-24H536v-67.2c0-12.8-10.4-24-24-24zM280-115.2c-32.8 0-115.2 7.2-176.8 71.2-51.2 53.6-75.2 132-72 234.4 8 210.4 193.6 352 272.8 402.4l12.8 8-9.6 11.2c-20 22.4-53.6 66.4-61.6 117.6-4.8 31.2 2.4 59.2 20 80.8 21.6 28 47.2 33.6 64.8 33.6 19.2 0 40-7.2 60.8-20l8.8-6.4 7.2 9.6c18.4 24.8 52 55.2 103.2 56h1.6c52 0 85.6-30.4 104.8-56l7.2-9.6 9.6 6.4c20.8 13.6 41.6 20 60.8 20 17.6 0 43.2-5.6 64.8-33.6 17.6-22.4 24-50.4 19.2-80.8-5.6-37.6-28-80.8-61.6-117.6l-9.6-11.2 12.8-8c79.2-51.2 264.8-192 272.8-402.4 4-102.4-20.8-181.6-72-234.4-61.6-64-144.8-71.2-176.8-71.2H280z m85.6 688.8c-28.8-16-277.6-159.2-286.4-384.8-3.2-89.6 16.8-156.8 58.4-200 48.8-50.4 116-56 142.4-56h464c26.4 0 93.6 5.6 142.4 56 41.6 43.2 61.6 110.4 58.4 199.2-8 226.4-257.6 369.6-285.6 384.8l-4.8 3.2-5.6-1.6c-2.4-0.8-4.8-1.6-7.2-1.6H384c-2.4 0-4.8 0.8-8 1.6l-5.6 1.6-4.8-2.4z m-36 223.2c-6.4 0-16-1.6-27.2-15.2-9.6-12-12.8-26.4-9.6-44.8 6.4-46.4 48-95.2 72.8-115.2l4.8-4 6.4 1.6c3.2 0.8 4.8 1.6 6.4 1.6h257.6c0.8 0 2.4-0.8 4-0.8l8-2.4 4.8 4c24.8 20 66.4 68.8 72.8 115.2 2.4 18.4-0.8 32.8-9.6 44.8-10.4 13.6-20 15.2-27.2 15.2-23.2 0-51.2-24-60-33.6-4.8-4.8-11.2-8-17.6-8-1.6 0-3.2 0-4.8 0.8-8 1.6-15.2 7.2-17.6 15.2-2.4 7.2-27.2 64-81.6 64h-1.6c-56.8-0.8-80-61.6-80.8-64-3.2-8-9.6-13.6-17.6-15.2-1.6 0-3.2-0.8-4.8-0.8-6.4 0-12.8 2.4-17.6 8-8.8 9.6-36.8 33.6-60 33.6z"  horiz-adv-x="1024" />

    
    <glyph glyph-name="kong" unicode="&#58906;" d="M969.73913 486.956522c-6.956522 26.434783-31.721739 45.356522-73.460869 56.486956-4.730435 1.391304-9.73913 2.504348-15.026087 3.617392-10.295652 2.226087-20.034783-4.452174-22.26087-14.747827-1.947826-10.295652 4.452174-20.034783 14.747826-22.260869 4.452174-0.834783 8.904348-1.947826 12.8-3.06087 26.991304-7.234783 43.408696-17.808696 47.026087-29.773913v-0.278261c5.565217-20.591304-22.26087-54.26087-79.582608-91.547826-1.669565 22.26087-5.286957 44.8-11.408696 67.06087-26.991304 100.730435-96.556522 184.486957-190.608696 229.565217-76.8 36.730435-164.173913 44.8-246.53913 22.817392-153.043478-40.904348-256-175.86087-264.069565-326.12174-32.834783-19.478261-59.547826-39.234783-79.582609-58.991304-11.408696-11.130435-20.313043-22.53913-26.991304-34.226087-6.678261-11.686957-10.573913-24.208696-10.573913-37.008695 0-5.008696 0.556522-10.017391 1.947826-14.747827v-0.27826c12.521739-45.913043 79.86087-65.947826 172.243478-67.339131 25.6-39.234783 58.713043-73.46087 97.947826-100.452174 60.104348-41.182609 130.504348-62.608696 201.739131-62.608695 30.886957 0 62.052174 3.895652 92.382608 12.243478 153.043478 40.904348 256.278261 176.13913 264.069565 326.678261 79.026087 47.304348 127.443478 98.504348 115.478261 144.417391-0.278261 0.278261-0.278261 0.556522-0.278261 0.556522z m-907.408695-243.478261c0 0.278261 0 0.278261 0 0-0.556522 1.947826-0.834783 3.617391-0.834783 5.286956 0 4.730435 1.669565 10.852174 5.843478 18.643479 7.513043 13.356522 23.373913 30.330435 46.191305 48.13913 8.347826 6.4 17.808696 13.078261 28.104348 19.756522 1.669565-22.26087 5.286957-44.8 11.408695-67.339131 5.843478-22.26087 13.913043-43.408696 23.930435-63.721739-67.895652 3.617391-108.8 18.643478-114.643478 39.234783z m518.121739-191.443478c-90.156522-24.208696-186.156522-7.791304-263.234783 45.07826-28.382609 19.478261-53.147826 43.130435-73.73913 70.12174 88.765217 3.895652 193.669565 21.426087 293.008696 48.13913 99.617391 26.713043 199.234783 63.721739 277.982608 104.904348-15.86087-124.93913-105.182609-233.73913-234.017391-268.243478z m-53.426087 199.513043c-123.269565-33.113043-228.452174-47.026087-307.2-48.13913-13.078261 23.373913-23.373913 48.13913-30.330435 74.295652-45.634783 170.017391 55.652174 345.6 225.947826 391.234782 27.269565 7.234783 54.817391 10.852174 82.643479 10.852174 47.304348 0 94.608696-10.573913 138.017391-31.443478 84.313043-40.347826 146.365217-115.2 170.573913-205.356522 7.234783-26.434783 10.573913-53.147826 10.852174-79.582608-69.008696-38.4-167.234783-78.747826-290.504348-111.86087zM438.53913 594.921739c-78.469565-19.756522-141.634783-77.634783-168.626087-154.156522-3.33913-9.73913 1.669565-20.591304 11.408696-23.930434 1.947826-0.834783 4.173913-1.113043 6.121739-1.113044 7.791304 0 15.026087 4.730435 17.808696 12.521739 22.817391 64.834783 76.243478 113.530435 142.469565 130.226087 10.017391 2.504348 16.13913 12.8 13.634783 22.817392-2.504348 10.017391-12.8 16.13913-22.817392 13.634782zM293.843478 353.113043c-0.278261 10.295652-9.182609 18.643478-19.478261 18.086957-10.295652-0.278261-18.365217-9.182609-18.086956-19.478261 0.278261-8.626087 1.113043-17.530435 2.504348-26.156522 1.391304-9.46087 9.46087-16.13913 18.643478-16.13913 0.834783 0 1.947826 0 2.782609 0.278261 10.295652 1.391304 17.252174 11.130435 15.860869 21.426087-1.113043 7.234783-1.947826 14.747826-2.226087 21.982608zM854.817391 752.695652c-40.069565 0-72.904348-32.556522-72.904348-72.904348s32.556522-72.904348 72.904348-72.904347 72.904348 32.556522 72.904348 72.904347-32.556522 72.904348-72.904348 72.904348z m0-112.695652c-21.982609 0-39.791304 17.808696-39.791304 39.791304s17.808696 39.791304 39.791304 39.791305 39.791304-17.808696 39.791305-39.791305c0.278261-21.982609-17.808696-39.791304-39.791305-39.791304zM313.043478-34.504348l-16.695652 5.565218-5.565217 16.695652c-1.391304 3.895652-4.730435 6.4-8.904348 6.4s-7.513043-2.504348-8.904348-6.4l-5.565217-16.695652-16.695653-5.565218c-3.895652-1.391304-6.4-4.730435-6.4-8.904348s2.504348-7.513043 6.4-8.904347l16.695653-5.565218 5.565217-16.695652c1.391304-3.895652 4.730435-6.4 8.904348-6.4s7.513043 2.504348 8.904348 6.4l5.565217 16.695652 16.695652 5.565218c3.895652 1.391304 6.4 4.730435 6.4 8.904347s-2.504348 7.513043-6.4 8.904348zM476.104348 849.530435l16.695652-5.565218 5.565217-16.695652c1.391304-3.895652 4.730435-6.4 8.904348-6.4s7.513043 2.504348 8.904348 6.4l5.565217 16.695652 16.695653 5.565218c3.895652 1.391304 6.4 4.730435 6.4 8.904348s-2.504348 7.513043-6.4 8.904347l-16.695653 5.565218-5.565217 16.695652c-1.391304 3.895652-4.730435 6.4-8.904348 6.4s-7.513043-2.504348-8.904348-6.4l-5.565217-16.695652-16.695652-5.565218c-3.895652-1.391304-6.4-4.730435-6.4-8.904347s2.504348-7.513043 6.4-8.904348zM38.121739 470.26087c1.391304-3.895652 4.730435-6.4 8.904348-6.4s7.513043 2.504348 8.904348 6.4l7.791304 23.652173 23.652174 7.791305c3.895652 1.391304 6.4 4.730435 6.4 8.904348s-2.504348 7.513043-6.4 8.904347l-23.652174 7.791305-7.791304 23.652174c-1.391304 3.895652-4.730435 6.4-8.904348 6.4s-7.513043-2.504348-8.904348-6.4l-7.791304-23.652174-23.652174-7.791305c-3.895652-1.391304-6.4-4.730435-6.4-8.904347s2.504348-7.513043 6.4-8.904348l23.652174-7.791305 7.791304-23.652173zM234.852174 773.843478m-18.921739 0a18.921739 18.921739 0 1 1 37.843478 0 18.921739 18.921739 0 1 1-37.843478 0ZM497.808696-109.078261m-18.921739 0a18.921739 18.921739 0 1 1 37.843478 0 18.921739 18.921739 0 1 1-37.843478 0ZM1005.078261 323.06087m-18.921739 0a18.921739 18.921739 0 1 1 37.843478 0 18.921739 18.921739 0 1 1-37.843478 0ZM666.991304 773.843478m-18.921739 0a18.921739 18.921739 0 1 1 37.843478 0 18.921739 18.921739 0 1 1-37.843478 0ZM951.930435 125.217391l-23.652174 7.791305-7.791304 23.652174c-1.391304 3.895652-4.730435 6.4-8.904348 6.4s-7.513043-2.504348-8.904348-6.4l-7.791304-23.652174-23.652174-7.791305c-3.895652-1.391304-6.4-4.730435-6.4-8.904348s2.504348-7.513043 6.4-8.904347l23.652174-7.791305 7.791304-23.652174c1.391304-3.895652 4.730435-6.4 8.904348-6.4s7.513043 2.504348 8.904348 6.4l7.791304 23.652174 23.652174 7.791305c3.895652 1.391304 6.4 4.730435 6.4 8.904347s-2.782609 7.513043-6.4 8.904348z"  horiz-adv-x="1024" />

    
    <glyph glyph-name="sousuo" unicode="&#58953;" d="M469.333333 42.658133c-211.754667 0-384 172.245333-384 384s172.245333 384 384 384 384-172.245333 384-384-172.245333-384-384-384m542.208-97.877333L829.952 126.4128c67.84 81.365333 108.714667 186.026667 108.714667 300.245333 0 259.2-210.133333 469.333333-469.333334 469.333334s-469.333333-210.133333-469.333333-469.333334 210.133333-469.333333 469.333333-469.333333c114.218667 0 218.88 40.874667 300.245334 108.714667l181.632-181.589334a42.7776 42.7776 0 0 1 60.330666 0 42.7776 42.7776 0 0 1 0 60.330667"  horiz-adv-x="1024" />

    
    <glyph glyph-name="dkw_huankuan" unicode="&#58884;" d="M170.666667 327.893333a21.333333 21.333333 0 0 1 0-42.666666h149.333333a21.333333 21.333333 0 0 1 0 42.666666H170.666667zM554.666667 434.56a21.333333 21.333333 0 0 1-21.333334 21.333333H170.666667a21.333333 21.333333 0 0 1 0-42.666666h362.666666a21.333333 21.333333 0 0 1 21.333334 21.333333zM662.613333 29.226667H106.666667a52.48 52.48 0 0 0-50.56 45.44V562.56h896v-230.613333a21.333333 21.333333 0 0 1 42.666666 0V693.333333A76.586667 76.586667 0 0 1 917.333333 775.893333H106.666667C59.52 775.893333 13.44 740.48 13.44 693.333333v-618.666666A94.933333 94.933333 0 0 1 106.666667-13.44h555.946666a21.333333 21.333333 0 0 1 0 42.666667zM56.106667 693.333333C56.106667 716.8 83.2 733.226667 106.666667 733.226667h810.666666a34.346667 34.346667 0 0 0 34.773334-39.893334v-88.106666h-896V693.333333zM981.333333 263.893333h-200.96a18.346667 18.346667 0 0 1-21.333333-16.64v-193.92a21.333333 21.333333 0 0 1 42.666667 0v157.653334c85.333333-47.36 132.053333-111.573333 132.053333-200.32a23.04 23.04 0 0 1 23.253333-21.333334 21.333333 21.333333 0 0 1 21.333334 20.053334c0 90.026667-35.626667 169.386667-110.08 212.053333H981.333333a21.333333 21.333333 0 0 1 0 42.453333z"  horiz-adv-x="1024" />

    
    <glyph glyph-name="config-rule" unicode="&#59208;" d="M147 782h680v-315.6h50v365.6h-780v-896h307.6v50h-257.6zM237 294.8h107.6v-50h-107.6zM237 615h500v-50h-500zM927 170.1v50h-81.8c-4.2 29.6-15.9 56.9-33.1 79.8l57.8 57.8-35.4 35.4-57.8-57.8c-22.9 17.2-50.2 28.8-79.8 33.1v81.8h-50v-81.8c-29.6-4.2-56.9-15.9-79.8-33.1l-57.8 57.8-35.3-35.3 57.8-57.8c-17.2-22.9-28.8-50.2-33.1-79.8h-81.7v-50h81.8c4.2-29.6 15.9-56.9 33.1-79.8l-57.9-57.9 35.4-35.4 57.8 57.8c22.9-17.2 50.2-28.8 79.8-33.1v-81.8h50v81.8c29.6 4.2 56.9 15.9 79.8 33.1l57.8-57.8 35.4 35.4-57.8 57.8c17.2 22.9 28.8 50.2 33.1 79.8h81.7zM795.7 177.2c-2.9-20.6-11.1-40.2-23.6-56.9l-10.8-14.5-14.5-10.8c-16.7-12.5-36.3-20.6-56.9-23.6l-17.9-2.6-17.9 2.6c-20.6 2.9-40.2 11.1-56.9 23.6l-14.5 10.8-10.8 14.5c-12.5 16.7-20.6 36.3-23.6 56.9l-2.6 17.9 2.6 17.9c2.9 20.6 11.1 40.2 23.6 56.9l10.8 14.5 14.5 10.8c16.7 12.5 36.3 20.6 56.9 23.6l17.9 2.6 17.9-2.6c20.6-2.9 40.2-11.1 56.9-23.6l14.5-10.8 10.8-14.5c12.5-16.7 20.6-36.3 23.6-56.9l2.6-17.9-2.6-17.9zM237 454.9h167.6v-50h-167.6z"  horiz-adv-x="1024" />

    
    <glyph glyph-name="xitongguanli-" unicode="&#58888;" d="M972.8 486.4h-64.512a406.528 406.528 0 0 1-43.52 105.472l45.568 45.568a51.2 51.2 0 0 1 0 72.192l-72.704 72.704a51.2 51.2 0 0 1-72.192 0l-45.568-45.568A406.528 406.528 0 0 1 614.4 780.288V844.8a51.2 51.2 0 0 1-51.2 51.2H460.8a51.2 51.2 0 0 1-51.2-51.2v-64.512a406.528 406.528 0 0 1-105.472-43.52l-45.568 45.568a51.2 51.2 0 0 1-72.192 0L113.664 709.632a51.2 51.2 0 0 1 0-72.192l45.568-45.568A406.528 406.528 0 0 1 115.712 486.4H51.2a51.2 51.2 0 0 1-51.2-51.2v-102.4a51.2 51.2 0 0 1 51.2-51.2h64.512a406.528 406.528 0 0 1 43.52-105.472l-45.568-45.568a51.2 51.2 0 0 1 0-72.192l72.192-72.192a51.2 51.2 0 0 1 72.192 0l45.568 45.568a406.528 406.528 0 0 1 105.984-44.032V-76.8a51.2 51.2 0 0 1 51.2-51.2h102.4a51.2 51.2 0 0 1 51.2 51.2v64.512a406.528 406.528 0 0 1 105.472 43.52l45.568-45.568a51.2 51.2 0 0 1 72.192 0l72.192 72.192a51.2 51.2 0 0 1 0 72.192l-45.568 45.568a406.528 406.528 0 0 1 44.032 105.984H972.8a51.2 51.2 0 0 1 51.2 51.2V435.2a51.2 51.2 0 0 1-51.2 51.2z m-460.8-307.2a204.8 204.8 0 1 0 204.8 204.8 204.8 204.8 0 0 0-204.8-204.8z"  horiz-adv-x="1024" />

    
    <glyph glyph-name="xinxi" unicode="&#58916;" d="M811.2-126.208H212.864a174.72 174.72 0 0 0-174.528 174.464V721.472A174.72 174.72 0 0 0 212.864 896h598.336a174.72 174.72 0 0 0 174.592-174.528v-673.216a174.848 174.848 0 0 0-174.592-174.464zM212.864 846.144a124.8 124.8 0 0 1-124.672-124.672v-673.216a124.8 124.8 0 0 1 124.672-124.544h598.336a124.8 124.8 0 0 1 124.672 124.544V721.472A124.8 124.8 0 0 1 811.2 846.144H212.864zM736.384 397.376H586.752a99.84 99.84 0 0 0-99.648 99.776V646.72a99.84 99.84 0 0 0 99.648 99.712h149.632a99.84 99.84 0 0 0 99.776-99.712v-149.568c-0.064-55.04-44.8-99.776-99.776-99.776zM586.752 696.576a49.92 49.92 0 0 1-49.792-49.856v-149.568c0-27.52 22.4-49.92 49.792-49.92h149.632a49.92 49.92 0 0 1 49.92 49.92V646.72a49.92 49.92 0 0 1-49.92 49.856H586.752zM362.432 696.576H212.864a24.96 24.96 0 1 0 0 49.856h149.568a24.896 24.896 0 0 0 0-49.856zM362.432 546.944H212.864a24.96 24.96 0 1 0 0 49.856h149.568a24.896 24.896 0 0 0 0-49.856zM362.432 397.376H212.864a24.96 24.96 0 1 0 0 49.856h149.568a24.896 24.896 0 0 0 0-49.856zM811.2 247.744H212.864a24.96 24.96 0 1 0 0 49.92h598.336a24.96 24.96 0 1 0 0-49.92zM586.752 98.24H212.864a24.96 24.96 0 1 0 0 49.856h373.888a24.96 24.96 0 1 0 0-49.856z"  horiz-adv-x="1024" />

    
    <glyph glyph-name="fanhui" unicode="&#59002;" d="M627.479 612.106H451.324V758.464l-385.13-196.73 385.13-196.68V511.361H641.56c150.323 0 225.485-64.75 225.485-194.3 0-134.36-77.542-199.111-234.856-199.111H190.636v-103.174h448.592c211.356 0 319.389 98.365 319.389 292.666 0 203.919-110.362 304.664-331.138 304.664z"  horiz-adv-x="1024" />

    
    <glyph glyph-name="shuaxin1" unicode="&#58885;" d="M688 129.728a301.376 301.376 0 0 0-204.8-54.656c-3.392 0.32-6.72 0.896-10.176 1.344-6.528 0.896-13.056 1.728-19.392 3.008a220.672 220.672 0 0 0-11.648 2.688 261.376 261.376 0 0 0-18.496 4.8c-2.88 0.896-5.76 1.92-8.704 2.944a298.176 298.176 0 0 0-25.28 9.728 292.48 292.48 0 0 0-23.36 11.456l-1.024 0.512a311.744 311.744 0 0 0-89.152 74.432c-1.216 1.472-2.368 3.136-3.584 4.672a311.168 311.168 0 0 0-67.264 193.472h71.168a5.12 5.12 0 0 1 4.544 2.752 4.992 4.992 0 0 1-0.256 5.248L161.088 573.76a5.12 5.12 0 0 1-8.64 0L32.896 392.128c-1.024-1.472-1.216-3.52-0.256-5.248s2.688-2.752 4.544-2.752h71.168c0-86.016 26.496-165.696 71.424-231.552 0.576-0.96 0.96-1.92 1.536-2.816 4.672-6.72 9.856-12.992 14.848-19.392 1.856-2.368 3.648-4.864 5.568-7.232 7.36-9.088 15.168-17.472 23.232-25.856l2.24-2.304a397.888 397.888 0 0 1 122.752-84.8l7.424-3.328c8.512-3.584 17.344-6.72 26.112-9.728 4.16-1.408 8.256-2.88 12.48-4.16 7.744-2.304 15.616-4.224 23.552-6.144 5.312-1.28 10.496-2.624 15.936-3.648 2.176-0.512 4.288-1.152 6.528-1.472 7.488-1.344 14.976-2.112 22.528-3.008l8.064-1.152a397.12 397.12 0 0 1 271.104 71.936 49.408 49.408 0 0 1 11.904 68.224 48.064 48.064 0 0 1-67.584 12.032m227.776 254.4a409.856 409.856 0 0 1-71.104 231.04c-0.704 1.152-1.152 2.304-1.792 3.264a428.928 428.928 0 0 1-17.664 23.04l-2.112 2.752a399.68 399.68 0 0 1-150.656 114.624 161.28 161.28 0 0 0-4.8 2.24 502.976 502.976 0 0 1-28.352 10.56c-3.648 1.152-7.04 2.432-10.624 3.456a377.856 377.856 0 0 1-25.344 6.656c-4.672 1.088-9.408 2.304-14.208 3.264-2.368 0.448-4.544 1.152-6.912 1.6-6.4 1.152-12.8 1.6-19.2 2.432-4.352 0.576-8.768 1.28-13.184 1.728a413.568 413.568 0 0 1-32 1.6c-1.92 0-3.84 0.32-5.824 0.32a397.312 397.312 0 0 1-231.488-73.92 49.408 49.408 0 0 1-11.968-68.288 48.128 48.128 0 0 1 67.584-11.968 302.464 302.464 0 0 0 205.12 54.656l8.128-1.152c7.36-0.832 14.592-1.92 21.696-3.328 3.136-0.576 6.272-1.408 9.344-2.112 6.976-1.6 14.016-3.328 20.8-5.376l6.4-2.24c7.808-2.56 15.424-5.312 22.976-8.512l2.368-1.088c45.12-19.648 84.736-49.92 115.648-87.808l0.576-0.768a311.04 311.04 0 0 0 69.696-196.736h-71.104a5.12 5.12 0 0 1-4.288-8l119.616-181.568a5.12 5.12 0 0 1 8.576 0l119.488 181.568a5.12 5.12 0 1 1-4.288 8h-71.104v0.064z m0 0"  horiz-adv-x="1024" />

    
    <glyph glyph-name="shanchu" unicode="&#58891;" d="M580.352 148.352V507.328c0 41.856 65.344 41.856 65.344 0v-358.912c0.064-41.856-65.344-41.856-65.344-0.064z m-196.032 0V507.328c0 41.856 65.344 41.856 65.344 0v-358.912c0-41.856-65.344-41.856-65.344-0.064z m555.584 522.112h-163.392v65.28c0 54.08-43.968 97.856-97.088 97.856H351.616a97.92 97.92 0 0 1-98.048-97.856v-65.28H90.176c-41.856 0-41.856-65.216 0-65.216h849.664c41.92 0 41.92 65.216 0.064 65.216z m-620.928 65.28c0 17.344 15.296 32.64 32.64 32.64h327.808c17.344 0 31.68-13.312 31.68-32.64v-65.28H318.976v65.28z m424.832-815.744H286.272a97.92 97.92 0 0 0-97.984 97.856V507.328c0 19.392 15.296 32.64 32.64 32.64s32.704-13.248 32.704-32.64v-489.408c0-17.344 15.36-32.64 32.64-32.64h457.536a33.6 33.6 0 0 1 32.704 32.64V506.304c0 42.816 65.344 42.816 65.344 0v-488.448a97.984 97.984 0 0 0-98.048-97.856z m0 0"  horiz-adv-x="1024" />

    
    <glyph glyph-name="yonghu" unicode="&#58890;" d="M512-128C229.248-128 0 101.248 0 384S229.248 896 512 896s512-229.248 512-512-229.248-512-512-512z m0 938.666667C276.352 810.666667 85.333333 619.648 85.333333 384s191.018667-426.666667 426.666667-426.666667 426.666667 191.018667 426.666667 426.666667S747.648 810.666667 512 810.666667z m0-768a340.650667 340.650667 0 0 0-266.24 128A340.650667 340.650667 0 0 0 512 298.666667a340.48 340.48 0 0 0 266.197333-128A340.48 340.48 0 0 0 512 42.666667z m0 298.666666a170.666667 170.666667 0 1 0 0 341.333334 170.666667 170.666667 0 0 0 0-341.333334z"  horiz-adv-x="1024" />

    
    <glyph glyph-name="feibiao" unicode="&#58958;" d="M512 833.5999999999999C263.8933333333333 833.5999999999999 62.400000000000034 632.1066666666667 62.400000000000034 384S263.8933333333333-65.59999999999991 512-65.59999999999991 961.5999999999999 135.89333333333332 961.5999999999999 384 760.1066666666667 833.5999999999999 512 833.5999999999999z m0-809.2800000000001c-198.72 0-359.68 160.96-359.68 359.68 0 83.2 28.373333333333335 159.57333333333332 75.94666666666667 220.26666666666665L732.2666666666667 100.26666666666665C671.5733333333334 52.693333333333385 595.2 24.319999999999936 512 24.319999999999936z m283.62666666666667 139.41333333333333L291.73333333333335 667.6266666666667c60.69333333333333 47.68 137.06666666666666 75.94666666666667 220.26666666666665 75.94666666666667 198.72 0 359.68-160.96 359.68-359.68 0-83.09333333333333-28.373333333333335-159.46666666666667-76.05333333333333-220.16z"  horiz-adv-x="1024" />

    
    <glyph glyph-name="wenjianjiazhankai" unicode="&#59155;" d="M973.737 387.384H283.911c-38.105 0-78.952-24.3-91.18-54.904L81.788-8.761c-12.197-30.572 8.762-55.22 46.836-55.22H818.42c38.073 0 78.92 24.9 91.148 55.472l110.943 340.927c12.23 30.603-8.7 54.966-46.773 54.966M264.56 452.153h630.448V574.356c0 71.356-61.459 129.002-137.48 129.002h-344.52v32.494c0 53.486-45.669 96.129-102.62 96.129h-206.41C46.993 831.98 0 789.338 0 735.85v-670.42c0-22.188 6.335-43.052 16.831-61.27l135.336 383.822c15.034 35.678 65.494 64.17 112.392 64.17"  horiz-adv-x="1024" />

    
    <glyph glyph-name="erji-mimazhongzhi" unicode="&#60064;" d="M1017.6 588.8l-160 160 32 32c12.8 12.8 12.8 32 0 44.8s-32 12.8-44.8 0l-249.6-256-128-128c-115.2 96-281.6 89.6-384-19.2C32 371.2 0 300.8 0 224s32-147.2 83.2-204.8c57.6-57.6 128-83.2 204.8-83.2 70.4 0 147.2 25.6 204.8 83.2 102.4 102.4 108.8 268.8 19.2 377.6l102.4 102.4 160-160c6.4-6.4 12.8-6.4 25.6-6.4s19.2 0 25.6 6.4c12.8 12.8 12.8 32 0 44.8l-160 160L812.8 704l160-160c6.4-6.4 12.8-6.4 25.6-6.4s19.2 0 25.6 6.4c0 12.8 0 32-6.4 44.8z m-576-524.8c-83.2-83.2-230.4-83.2-313.6 0-44.8 44.8-64 96-64 160S89.6 339.2 128 384c44.8 44.8 102.4 64 160 64s115.2-19.2 160-64c83.2-89.6 83.2-230.4-6.4-320z"  horiz-adv-x="1024" />

    
    <glyph glyph-name="icon--" unicode="&#59154;" d="M678.4 384h-307.2c-15.36 0-25.6-10.24-25.6-25.6s10.24-25.6 25.6-25.6h307.2c15.36 0 25.6 10.24 25.6 25.6 0 12.8-10.24 25.6-25.6 25.6z m153.6 384h-614.4c-56.32 0-102.4-46.08-102.4-102.4v-614.4c0-56.32 46.08-102.4 102.4-102.4h614.4c56.32 0 102.4 46.08 102.4 102.4V665.6c0 56.32-46.08 102.4-102.4 102.4z m51.2-716.8c0-28.16-23.04-51.2-51.2-51.2h-614.4c-28.16 0-51.2 23.04-51.2 51.2V665.6c0 28.16 23.04 51.2 51.2 51.2h614.4c28.16 0 51.2-23.04 51.2-51.2v-614.4z"  horiz-adv-x="1024" />

    
    <glyph glyph-name="icon--1" unicode="&#59175;" d="M683.52 404.48l-307.2 279.04c-10.24 10.24-25.6 10.24-35.84 0-10.24-10.24-10.24-25.6 0-35.84L629.76 384 340.48 120.32c-10.24-10.24-10.24-25.6 0-35.84 10.24-10.24 25.6-10.24 35.84 0l307.2 279.04c5.12 5.12 7.68 12.8 7.68 20.48 0 7.68-2.56 15.36-7.68 20.48z"  horiz-adv-x="1024" />

    
    <glyph glyph-name="zhifu" unicode="&#58942;" d="M832 768h-51.2v-768h51.2c56.32 0 102.4 46.08 102.4 102.4V665.6c0 56.32-46.08 102.4-102.4 102.4zM422.4 665.6v-225.28c25.6 15.36 53.76 25.6 84.48 25.6 40.96 0 79.36-15.36 107.52-46.08 58.88-58.88 58.88-156.16 0-217.6l-168.96-168.96c17.92-23.04 46.08-35.84 76.8-35.84h204.8V768h-204.8c-53.76 0-99.84-46.08-99.84-102.4zM578.56 386.56c-20.48 20.48-46.08 30.72-71.68 30.72-25.6 0-53.76-10.24-71.68-30.72l-12.8-12.8-51.2-51.2V583.68l-281.6-279.04V0h204.8c25.6 0 51.2 10.24 69.12 30.72l56.32 56.32 156.16 156.16c40.96 38.4 40.96 102.4 2.56 143.36z"  horiz-adv-x="1024" />

    
    <glyph glyph-name="jinrongxianxingge-" unicode="&#58893;" d="M312.61080752 463.74033935h-46.01289053c-33.74278641 0-61.35052074 27.60773431-61.35052082 61.35052076v61.35052076c0 33.74278641 27.60773431 61.35052074 61.35052082 61.35052078h490.80416602c33.74278641 0 61.35052074-27.60773431 61.35052082-61.35052078v-61.35052076c0-33.74278641-27.60773431-61.35052074-61.35052082-61.35052076h-46.01289053M757.40208301 448.40270917h-46.01289053a15.33763018 15.33763018 0 1 0 0 30.67526038h46.01289053c25.36844034 0 46.01289055 20.64445023 46.0128906 46.01289056v61.35052076c0 25.36844034-20.64445023 46.01289055-46.0128906 46.01289062H266.59791699c-25.36844034 0-46.01289055-20.64445023-46.0128906-46.01289062v-61.35052076c0-25.36844034 20.64445023-46.01289055 46.0128906-46.01289056h46.01289053a15.33763018 15.33763018 0 1 0 0-30.67526038h-46.01289053c-42.28584641 0-76.68815097 34.40230452-76.688151 76.68815094v61.35052076c0 42.28584641 34.40230452 76.68815097 76.688151 76.68815094h490.80416602c42.28584641 0 76.68815097-34.40230452 76.688151-76.68815094v-61.35052076c0-42.28584641-34.40230452-76.68815097-76.688151-76.68815094zM650.0386717 95.69856530000004H373.9613283c-33.74278641 0-61.35052074 27.60773431-61.35052078 61.35052078v398.77838494h398.77838496v-398.77838494c0-33.74278641-27.60773431-61.35052074-61.35052078-61.35052078zM665.3763019 555.8274710200001v-352.76549438c0-33.74278641-27.60773431-61.35052074-61.35052075-61.35052075H327.94843772c-4.70865244 0-9.248591 0.65951811-13.66582854 1.67180168 6.27309074-27.19361831 30.6445851-47.6846923 59.67871912-47.68469227h276.0773434c33.74278641 0 61.35052074 27.60773431 61.35052078 61.35052078v398.77838494h-46.01289058zM414.91280091 80.36093513000003a15.33763018 15.33763018 0 0 0-15.3376302 15.33763017v460.12890572a15.33763018 15.33763018 0 1 0 30.67526031 0v-460.12890572a15.33763018 15.33763018 0 0 0-15.33763011-15.33763017zM650.0386717 80.36093513000003H373.9613283c-42.28584641 0-76.68815097 34.40230452-76.68815095 76.68815095v414.11601516h429.4536453v-414.11601516c0-42.28584641-34.40230452-76.68815097-76.68815095-76.68815095z m-322.09023398 460.1289057v-383.44075475c0-25.36844034 20.64445023-46.01289055 46.01289058-46.0128906h276.0773434c25.36844034 0 46.01289055 20.64445023 46.01289058 46.0128906v383.44075475H327.94843772zM628.62734 188.67527952l-61.35052079-15.3376302v122.70104154l61.35052079 15.33763022z"  horiz-adv-x="1024" />

    
    <glyph glyph-name="mb_zhuxiao" unicode="&#58880;" d="M63.325 396.923c0 12.372-1.202 24.888 0.26 37.085 2.714 22.633 5.999 45.294 10.824 67.558 8.482 39.142 23.586 75.992 42.621 111.164 11.45 21.155 24.505 41.369 39.71 60.043 9.645 11.845 19.894 23.214 30.174 34.521 24.063 26.469 51.82 48.628 81.87 67.798 14.32 9.136 29.194 17.822 44.784 24.434 16.697 7.081 33.228 0.63 42.661-13.858 11.237-17.259 5.113-41.522-12.754-50.535-23.271-11.74-45.445-25.254-65.552-41.68a488.39 488.39 0 0 1-45.376-42.124c-19.363-20.428-35.708-43.366-49.686-67.85-11.062-19.375-20.664-39.53-27.581-60.734-5.75-17.621-11.014-35.503-14.83-53.62-3.155-14.988-4.363-30.45-5.54-45.772a402.378 402.378 0 0 1-1.078-40.83c0.536-21.527 3.484-42.82 7.91-63.922 4.61-21.991 11.281-43.321 19.68-64.126 11.061-27.398 25.427-52.955 42.588-77.015 13.624-19.1 28.796-36.825 45.723-53.015a381.896 381.896 0 0 1 68.254-51.997c25.796-15.419 52.834-28.138 81.76-36.229 18.518-5.18 37.445-9.016 56.332-12.73 23.99-4.716 48.397-5.352 72.69-4.108 16.514 0.845 32.932 3.818 49.358 6.09 27.202 3.762 53.15 12.193 78.347 22.694 29.178 12.16 56.65 27.581 81.622 47.106 10.895 8.517 21.789 17.137 31.843 26.603 25.137 23.668 46.605 50.364 64.5 79.98 17.107 28.307 30.644 58.139 39.223 90.06 4.546 16.915 8.15 34.103 11.585 51.288 1.538 7.694 1.857 15.668 2.292 23.538 0.595 10.758 0.97 21.537 1.089 32.312 0.372 33.289-4.754 65.86-13.38 97.921-7.072 26.28-16.992 51.502-29.8 75.488-12.666 23.722-27.134 46.345-45.109 66.468-10.823 12.117-21.599 24.389-33.474 35.43-19.845 18.451-41.477 34.714-65.067 48.238-6.33 3.63-12.499 7.54-18.75 11.308-7.429 4.48-10.812 11.834-12.672 19.647-2.567 10.781-0.436 20.763 6.316 30.037 9.783 13.438 29.456 18.327 43.016 10.676 18.61-10.502 37.265-21.204 54.558-33.683 17.006-12.272 32.534-26.64 48.345-40.504 19.349-16.966 35.517-36.872 50.862-57.405 16.728-22.385 30.676-46.486 42.86-71.625 14.074-29.04 24.933-59.25 31.892-90.73 3.677-16.63 5.91-33.583 8.684-50.408 4.133-25.067 3.769-50.381 2.964-75.599-0.495-15.5-3.147-30.946-5.086-46.385-3.524-28.052-10.838-55.198-20.255-81.79-10.549-29.79-23.773-58.358-40.946-84.922-9.915-15.336-19.716-30.939-31.39-44.899-15.157-18.127-31.24-35.695-48.526-51.781-25.85-24.054-54.582-44.476-85.732-61.397-25.45-13.825-51.802-25.416-79.4-34.217-22.39-7.14-45.109-12.883-68.437-15.843-14.06-1.784-28.177-3.349-42.318-4.196-15.005-0.898-30.09-1.51-45.097-0.989-13.967 0.486-27.975 2.002-41.787 4.19-18.526 2.937-37.176 5.87-55.227 10.802-20.197 5.519-40.081 12.518-59.565 20.228-29.406 11.637-56.96 27.037-82.538 45.659-13.967 10.167-27.47 21.043-40.563 32.319-10.583 9.114-20.618 18.946-30.23 29.091-21.208 22.384-39.997 46.711-55.493 73.41-8.571 14.766-17.063 29.667-24.272 45.122-12.644 27.106-22.706 55.26-28.908 84.582-3.49 16.499-6.43 33.169-8.485 49.9-2.183 17.795-3.026 35.753-4.455 53.64 0.718 0.031 1.44 0.06 2.162 0.088zM546.37 562.321c0-74.62 0.044-149.24-0.03-223.86-0.02-17.942-15.65-31.386-32.147-32.451-13.586-0.877-24.565 4.076-32.626 15.195-5.042 6.954-6.512 15.143-6.522 23.267-0.162 144.976-0.169 289.953-0.047 434.928 0.014 16.241 6.283 29.714 22.098 36.062 23.35 9.372 49.265-5.883 49.27-30.88 0.015-74.086 0.005-148.173 0.005-222.26z"  horiz-adv-x="1024" />

    
    <glyph glyph-name="daikuanzhanghu" unicode="&#58894;" d="M110.72 429.376h45.6v-263.52H110.72v263.52z m91.168 0h45.6v-263.52h-45.6v263.52z m136.752 0v-263.52h-45.584v263.52h45.6zM41.232 159.664c0-32.112 23.84-58.768 54.16-62.032H555.36c1.824-14.224 8.768-28.128 12.384-41.696H72.64C31.984 60.304 0 96.064 0 139.136V783.84C0 829.856 36.48 864 81.072 864h925.104c44.592 0 84.48-34.144 84.48-80.16v-430.048c-12.544 14.432-26.336 33.68-41.232 45.568v107.04H41.232v-346.72zM101.664 822.288c-33.232 0-60.432-25.456-60.432-59.76v-112h1008.192v112c0 34.304-29.744 59.76-62.992 59.76H101.664z m746.256-373.248C998.192 449.04 1120 327.104 1120 176.656s-121.808-272.4-272.08-272.4c-150.24 0-272.064 121.952-272.064 272.4 0 150.448 121.808 272.384 272.064 272.384z m124-352.048c0 16.064-13.312 24.4-29.696 24.384h-67.04v36.592h67.024c16.4 0 29.68 9.456 29.68 25.52s-13.28 25.168-29.68 25.168H875.2v2.992l72.752 63.84c11.68 11.456 20.32 30.016 8.64 41.44-11.648 11.472-29.152 11.472-40.8 0l-70.4-59.264-67.28 59.04c-11.648 11.456-29.2 11.232-40.832-0.208-11.712-11.456-5.968-29.808 5.744-41.248l74.784-64.608v-1.968h-68.32c-16.368 0-29.664-9.12-29.664-25.184 0-16.048 13.28-25.504 29.648-25.504h68.336v-36.592h-68.32c-16.368 0-29.664-8.288-29.664-24.4 0-16.08 13.28-24.32 29.648-24.32h68.336v-61.44c0-20.112 7.6-31.232 28.032-31.232 20.48 0 29.36 11.12 29.36 31.216v61.44h67.024c16.384 0 29.68 8.256 29.68 24.32z"  horiz-adv-x="1120" />

    
    <glyph glyph-name="renminbizhanghu" unicode="&#58895;" d="M1076.08 590.48v121.296a44 44 0 0 1-43.92 44.112H87.84a44 44 0 0 1-43.92-44.112v-121.28h1032.16z m0-143.344H43.92v-374.912a44 44 0 0 1 43.92-44.112h944.32a44 44 0 0 1 43.92 44.112V447.136zM87.84 800h944.32C1080.672 800 1120 760.512 1120 711.776v-639.552C1120 23.488 1080.672-16 1032.16-16H87.84C39.328-16 0 23.488 0 72.224V711.776C0 760.512 39.328 800 87.84 800z m25.872-438.88h46.8v-266.112H113.712V361.104z m93.616 0h46.816v-266.112h-46.816V361.104z m93.616 0h46.816v-266.112h-46.816V361.104z"  horiz-adv-x="1120" />

    
    <glyph glyph-name="huoqizhanghu" unicode="&#58897;" d="M110.72 445.376h45.6v-263.52H110.72v263.52z m91.168 0h45.6v-263.52h-45.6v263.52z m136.752 0v-263.52h-45.584v263.52h45.6zM41.232 175.664c0-32.112 23.84-58.768 54.16-62.032H555.36c1.824-14.224 8.768-28.128 12.384-41.696H72.64C31.984 76.304 0 112.064 0 155.136V799.84C0 845.856 36.48 880 81.072 880h925.104c44.592 0 84.48-34.144 84.48-80.16v-430.048c-12.544 14.432-26.336 33.68-41.232 45.568v107.04H41.232v-346.72zM101.664 838.288c-33.232 0-60.432-25.456-60.432-59.76v-112h1008.192v112c0 34.304-29.744 59.76-62.992 59.76H101.664z m746.256-373.248C998.192 465.04 1120 343.104 1120 192.656s-121.808-272.4-272.08-272.4c-150.24 0-272.064 121.952-272.064 272.4 0 150.448 121.808 272.384 272.064 272.384z m-56-249.248V283.36c0 32.656 26.432 59.232 58.928 59.232 32.496 0 58.928-26.56 58.928-59.232 0-9.68 7.808-17.536 17.44-17.536 9.632 0 17.44 7.84 17.44 17.536 0 52-42.08 94.304-93.808 94.304-51.728 0-93.824-42.304-93.824-94.304v-67.584h-8.848c-9.632 0-17.44-7.84-17.44-17.536v-141.552c0-4.64 1.84-9.12 5.12-12.4 3.264-3.28 7.696-5.12 12.32-5.12h205.344c9.632 0 17.44 7.84 17.44 17.52v141.552c0 9.68-7.808 17.536-17.44 17.536h-161.6z"  horiz-adv-x="1120" />

    
    <glyph glyph-name="dingqizhanghu" unicode="&#58908;" d="M110.72 429.376h45.6v-263.52H110.72v263.52z m91.168 0h45.6v-263.52h-45.6v263.52z m136.752 0v-263.52h-45.584v263.52h45.6zM41.232 159.664c0-32.112 23.84-58.768 54.16-62.032H555.36c1.824-14.224 8.768-28.128 12.384-41.696H72.64C31.984 60.304 0 96.064 0 139.136V783.84C0 829.856 36.48 864 81.072 864h925.104c44.592 0 84.48-34.144 84.48-80.16v-430.048c-12.544 14.432-26.336 33.68-41.232 45.568v107.04H41.232v-346.72zM101.664 822.288c-33.232 0-60.432-25.456-60.432-59.76v-112h1008.192v112c0 34.304-29.744 59.76-62.992 59.76H101.664z m746.256-373.248C998.192 449.04 1120 327.104 1120 176.656s-121.808-272.4-272.08-272.4c-150.24 0-272.064 121.952-272.064 272.4 0 150.448 121.808 272.384 272.064 272.384z m-56-249.248V267.36c0 32.656 26.432 59.232 58.928 59.232 31.776 0 57.76-25.392 58.88-57.056 0.032-0.48 0.016-23.744 0-69.76h34.88c0.032 46.384 0.032 69.904 0 70.56-1.552 50.624-43.024 91.328-93.76 91.328-51.728 0-93.824-42.304-93.824-94.304v-67.584h-8.848c-9.632 0-17.44-7.84-17.44-17.536v-141.552c0-4.64 1.84-9.12 5.12-12.4 3.264-3.28 7.696-5.12 12.32-5.12h205.344c9.632 0 17.44 7.84 17.44 17.52v141.552c0 9.68-7.808 17.536-17.44 17.536h-161.6z"  horiz-adv-x="1120" />

    
    <glyph glyph-name="dui" unicode="&#58910;" d="M463.6928 243.3024l-206.336 202.5728-48.64-47.744 230.656-226.4576 24.32-23.8848 392.4992 385.3824-48.64 47.744-343.8592-337.6128zM512-128C229.2224-128 0 101.2224 0 384S229.2224 896 512 896s512-229.2224 512-512-229.2224-512-512-512z"  horiz-adv-x="1024" />

    
    <glyph glyph-name="gantanhao" unicode="&#58911;" d="M512-128C229.2224-128 0 101.2224 0 384S229.2224 896 512 896s512-229.2224 512-512-229.2224-512-512-512zM485.8368 738.4576l14.1824-493.4144h58.624l15.104 493.4144h-87.9104z m43.4944-562.432c-16.0768 0-29.312-4.7104-40.6528-16.0512-11.3408-10.3936-16.0512-23.6288-16.0512-39.68 0-16.0768 4.7104-29.312 16.0512-40.6528 11.3408-10.3936 24.576-16.0768 40.6528-16.0768 16.0768 0 30.2336 5.6832 41.6 16.0768 10.3936 10.3936 16.0512 23.6288 16.0512 40.6272 0 16.0768-5.6576 29.312-16.0512 39.7056-11.3664 11.3408-25.5232 16.0768-41.6 16.0768z"  horiz-adv-x="1024" />

    
    <glyph glyph-name="cuowu" unicode="&#58917;" d="M553.6256 387.84l222.7712 222.7968-55.68 55.7056-222.7968-222.7968-224.768 224.768-55.7056-55.68 224.768-224.768-222.7968-222.7968 55.7056-55.7056 222.7968 222.7968 224.768-224.768 55.7056 55.68-224.768 224.768zM512-128C229.2224-128 0 101.2224 0 384S229.2224 896 512 896s512-229.2224 512-512-229.2224-512-512-512z"  horiz-adv-x="1024" />

    
    <glyph glyph-name="wenhao" unicode="&#58920;" d="M869.295627 26.704373c-202.519575-202.545175-526.663533-206.743533-724.01196-9.420706-197.322827 197.348427-193.124469 521.492385 9.420706 724.01196 202.519575 202.545175 526.663533 206.743533 724.01196 9.420706 197.322827-197.348427 193.124469-521.492385-9.420706-724.01196zM509.00483 653.539705c-59.826602 0-106.341337-18.559814-139.569804-55.679444-33.228468-35.455645-49.02351-82.687173-49.02351-141.771382h65.637744c0 41.343587 9.139109 73.420066 27.391726 97.02303 19.9678 27.852521 50.687493 41.369186 92.235877 41.369186 34.892451 0 62.284177-9.292707 81.407186-29.542104 18.278217-18.559814 28.236518-44.722753 28.236518-78.463216 0-23.628564-8.294317-45.567544-24.908551-66.661733-4.99195-6.732733-14.95025-16.870231-28.262117-30.361297-44.850751-40.498795-72.268077-72.575274-83.890362-97.867821-9.9839-21.094189-14.95025-45.567544-14.95025-73.420066v-19.404606h66.456935v19.404606c0 22.783772 4.96635 43.03317 15.769443 61.592984 8.319917 15.180648 20.786992 30.386896 39.039609 46.412336 36.556434 32.895671 58.98181 54.834652 67.301727 64.972151 20.761392 27.826922 31.564484 60.748193 31.564485 98.712612 0 50.610694-15.795042 90.264697-46.514735 118.962011-32.409276 30.386896-74.751252 44.722753-127.921921 44.722753z m-12.467075-492.923071c-14.131059 0-25.753342-4.070359-35.737243-13.772662-9.9583-8.908711-14.105459-20.223798-14.105459-33.99646 0-13.747063 4.147159-25.087749 14.105459-34.815652 9.9839-8.883111 21.606184-13.747063 35.737243-13.747063 14.105459 0 25.753342 4.863951 35.711643 13.772662 9.9839 8.883111 14.95025 20.223798 14.95025 34.815652 0 13.747063-4.96635 25.087749-14.105459 33.970861-9.9839 9.727903-22.450975 13.772662-36.556434 13.772662z"  horiz-adv-x="1024" />

    
    <glyph glyph-name="shouye1" unicode="&#58923;" d="M618.552889 529.863111l-32.369778 29.866667a840.817778 840.817778 0 0 0-15.246222 14.449778c-15.928889 14.791111-33.735111 21.788444-53.532445 20.878222a77.824 77.824 0 0 1-51.029333-20.878222 2446.563556 2446.563556 0 0 0-49.322667-45.966223c-12.970667-11.946667-27.420444-25.144889-43.292444-39.594666-15.872-14.563556-31.744-29.184-47.616-43.975111a52376.462222 52376.462222 0 0 1-126.634667-115.882667v-330.524445c0-13.539556 4.835556-24.064 14.449778-31.459555 9.671111-7.395556 22.698667-11.093333 39.082667-11.093333h167.480889a80.042667 80.042667 0 0 0-0.227556 5.404444v145.408c0 45.909333 37.148444 83.228444 82.944 83.228444h30.72a83.057778 83.057778 0 0 0 83.000889-83.228444v-145.408c0-1.820444-0.056889-3.584-0.227556-5.404444h167.480889c15.928889 0.568889 28.501333 5.688889 37.831111 15.416888a54.442667 54.442667 0 0 1 14.051556 33.223112V327.111111a127104.568889 127104.568889 0 0 1-127.488 118.442667c-16.497778 14.791111-32.426667 29.525333-48.014222 44.373333l-42.097778 39.992889z m307.655111-79.189333l-21.276444 21.276444a1889.962667 1889.962667 0 0 1-39.936 38.741334c-15.928889 15.075556-33.28 32.028444-52.280889 50.801777-18.944 18.773333-38.4 37.546667-58.197334 56.661334a15667.996444 15667.996444 0 0 0-110.933333 107.349333c-15.530667 15.075556-28.728889 27.761778-39.480889 38.4a491.292444 491.292444 0 0 1-21.276444 20.024889 86.186667 86.186667 0 0 1-63.715556 25.031111c-24.917333-0.227556-48.184889-10.808889-69.688889-31.857778-2.844444-2.844444-12.913778-12.344889-30.151111-28.615111-20.764444-19.399111-41.415111-38.855111-62.065778-58.311111-24.064-22.755556-50.176-47.217778-78.222222-73.386667L200.362667 543.573333 137.500444 484.807111c-17.578667-16.554667-28.046222-26.453333-31.459555-29.923555-9.102222-8.533333-13.880889-20.024889-14.449778-34.474667a45.169778 45.169778 0 0 1 16.156445-36.977778 49.493333 49.493333 0 0 1 36.579555-12.913778c14.108444 0.625778 25.429333 4.323556 33.962667 11.150223 2.844444 2.218667 11.150222 9.728 25.031111 22.584888 13.937778 12.743111 30.492444 28.16 49.720889 46.421334 20.935111 19.683556 41.870222 39.253333 62.919111 58.823111 22.698667 20.992 44.202667 41.130667 64.625778 60.529778a8560.867556 8560.867556 0 0 0 85.788444 79.985777c17.009778 15.473778 34.304 23.324444 51.882667 24.007112 17.521778 0.455111 35.384889-7.395556 53.475555-24.007112 3.982222-3.299556 13.368889-12.231111 28.103111-26.396444 14.734222-14.222222 32.256-30.890667 52.679112-50.289778 20.366222-19.285333 42.097778-39.879111 65.024-61.724444 22.926222-21.902222 44.487111-42.382222 64.568888-61.44l51.882667-48.981334c14.449778-13.653333 23.04-21.504 25.884445-23.893333 8.533333-7.395556 19.854222-11.320889 34.019555-11.832889 14.165333-0.568889 26.624 3.982222 37.376 13.653334a42.439111 42.439111 0 0 1 13.596445 34.019555c-0.568889 13.653333-6.826667 26.168889-18.659556 37.546667z"  horiz-adv-x="1024" />

    
    <glyph glyph-name="zhanghuguanli" unicode="&#58929;" d="M632.149333 50.062222l-4.608 1.934222-6.485333 3.697778a80.668444 80.668444 0 0 0-49.720889 73.784889v32.426667c0 22.869333 9.500444 43.463111 24.689778 58.026666 0 0 10.353778 10.808889 14.336 13.824 5.859556 4.039111 21.959111 7.395556 21.959111 7.395556a79.303111 79.303111 0 0 0 29.525333 85.105778 285.582222 285.582222 0 0 1-150.755555 42.951111H341.959111C184.775111 369.208889 56.888889 242.232889 56.888889 86.357333v-16.839111c0-81.521778 125.838222-81.521778 285.013333-81.521778h169.187556c45.624889 0 89.429333 0 128.398222 2.104889a79.872 79.872 0 0 0-7.338667 59.960889zM418.133333 390.826667c124.416 0 225.621333 100.579556 225.621334 224.142222C643.754667 738.588444 542.549333 839.111111 418.133333 839.111111 293.546667 839.111111 192.284444 738.588444 192.284444 614.968889c0-123.562667 101.319111-224.142222 225.848889-224.142222z m525.255111-202.24a43.235556 43.235556 0 0 0-40.789333 42.609777 39.253333 39.253333 0 0 0 4.835556 19.171556 26.567111 26.567111 0 0 1-10.752 34.588444l-14.506667 8.533334-13.937778 7.964444a27.136 27.136 0 0 1-35.441778-7.964444 42.552889 42.552889 0 0 0-35.953777-19.171556c-15.018667 0-28.444444 7.452444-35.953778 19.171556a27.136 27.136 0 0 1-35.498667 7.964444l-14.961778-7.964444-13.994666-7.964445a26.567111 26.567111 0 0 1-10.695111-34.645333 39.253333 39.253333 0 0 0 4.778666-19.171556c0-22.869333-17.692444-40.96-40.789333-42.552888v-0.568889a26.396444 26.396444 0 0 1-24.689778-26.624v-32.426667c0-13.880889 11.264-25.6 24.689778-26.624l0.568889-0.568889a42.382222 42.382222 0 0 0 35.441778-61.724444 26.567111 26.567111 0 0 1 10.695111-34.645334l28.444444-16.497777a27.022222 27.022222 0 0 1 35.441778 8.021333 42.496 42.496 0 0 0 35.953778 19.171555c15.075556 0 28.444444-7.964444 36.010666-19.171555a26.567111 26.567111 0 0 1 35.384889-7.964445l28.501334 16.497778a26.453333 26.453333 0 0 1 10.695111 34.076445s0 0.512-0.512 0.512c-0.568889 0.568889-0.568889 1.080889-1.080889 1.592889l-0.568889 0.568888a42.780444 42.780444 0 0 0 36.977778 59.107556l0.568889 0.512a26.453333 26.453333 0 0 1 24.803555 26.567111v33.564445c1.024 13.824-10.24 25.031111-23.665778 26.055111z m-84.252444-65.422223c-2.673778-7.509333-6.997333-14.392889-11.832889-20.252444a67.697778 67.697778 0 0 0-62.805333-22.357333 67.584 67.584 0 0 0-39.196445 22.357333 59.392 59.392 0 0 0-11.832889 20.195556 61.895111 61.895111 0 0 0-4.266666 22.357333c0 7.964444 1.592889 15.416889 3.754666 22.414222 2.673778 7.395556 6.428444 14.336 11.832889 20.195556 9.671111 11.719111 23.608889 19.683556 39.708445 22.357333 3.754667 0.568889 7.509333 1.080889 11.776 1.080889 4.323556 0 8.078222-0.568889 11.832889-1.080889 15.587556-2.673778 29.525333-11.150222 39.765333-22.357333 4.778667-5.859556 9.102222-12.743111 11.776-20.195556 2.673778-6.997333 3.754667-14.392889 3.754667-22.414222 0-7.964444-1.649778-15.36-4.266667-22.357333z"  horiz-adv-x="1024" />

    
    <glyph glyph-name="tourongziguanli" unicode="&#58930;" d="M512 839.111111C261.12 839.111111 56.888889 634.88 56.888889 384c0-250.936889 204.231111-455.111111 455.111111-455.111111 250.936889 0 455.111111 204.174222 455.111111 455.111111 0 250.88-204.174222 455.111111-455.111111 455.111111z m253.781333-557.681778a11.548444 11.548444 0 0 0-11.605333-11.548444H415.459556a11.548444 11.548444 0 0 1-11.491556-11.548445v-68.664888c0-10.24-12.515556-15.416889-19.740444-8.135112l-122.709334 122.652445a11.548444 11.548444 0 0 0 8.192 19.740444h484.522667c6.371556 0 11.548444-5.176889 11.548444-11.548444v-30.947556z m-11.491555 162.645334H269.767111a11.548444 11.548444 0 0 0-11.548444 11.548444v30.947556c0 6.371556 5.176889 11.548444 11.548444 11.548444h338.716445a11.548444 11.548444 0 0 1 11.548444 11.548445V578.332444c0 10.24 12.458667 15.36 19.740444 8.135112l88.348445-88.348445 34.360889-34.360889a11.548444 11.548444 0 0 0-8.192-19.683555z"  horiz-adv-x="1024" />

    
    <glyph glyph-name="shoufukuanguanli" unicode="&#58935;" d="M611.612444 345.941333c16.497778 0 28.16-8.590222 28.16-30.890666 0-17.066667-7.850667-28.444444-24.462222-28.444445h-67.128889v-44.487111c0-21.219556-15.416889-37.034667-36.124444-37.034667a34.304 34.304 0 0 0-25.827556 10.524445 36.295111 36.295111 0 0 0-10.353777 26.510222v44.487111H410.624c-16.554667 0-26.339556 14.165333-26.339556 31.232 0 17.066667 9.784889 28.103111 26.339556 28.103111h65.137778v36.977778H410.624c-16.554667 0-26.339556 13.198222-26.339556 30.264889 0 17.066667 9.784889 29.070222 26.339556 29.070222h63.032889L407.552 509.781333a31.573333 31.573333 0 0 0 0 44.032 29.752889 29.752889 0 0 0 42.951111 0.056889L511.431111 491.235556l61.269333 62.748444a29.639111 29.639111 0 0 0 42.837334 0 31.459556 31.459556 0 0 0 0-43.861333L549.546667 442.140444h63.943111c16.554667 0 26.282667-12.060444 26.282666-29.013333 0-17.009778-9.671111-30.321778-26.282666-30.321778H548.295111v-36.977777h63.317333v0.113777z m265.671112-33.109333s-4.551111 1.820444-11.320889 1.820444h-93.297778V453.632h91.591111l0.910222-0.113778 0.796445 0.113778h1.137777a45.795556 45.795556 0 0 1 43.121778 46.08 46.933333 46.933333 0 0 1-10.638222 29.582222L582.656 813.511111a110.023111 110.023111 0 0 1-140.515556 0.455111L124.984889 530.033778a46.876444 46.876444 0 0 1-9.329778-43.576889 44.942222 44.942222 0 0 1 31.061333-31.118222c14.791111-4.152889 4.494222-1.820444 11.150223-1.820445h93.411555v-138.922666h-91.591111l-0.796444 0.056888-0.910223-0.056888h-1.137777a45.795556 45.795556 0 0 1-43.121778-46.250667c0-11.377778 4.209778-21.504 10.808889-29.582222l140.8-126.293334c5.859556-8.192 13.198222-14.791111 22.016-19.854222L441.457778-45.511111c40.96-33.962667 99.498667-34.133333 140.686222-0.455111l154.680889 138.695111a65.991111 65.991111 0 0 1 21.788444 19.569778l140.344889 125.781333a46.762667 46.762667 0 0 1 9.329778 43.463111 45.397333 45.397333 0 0 1-31.061333 31.288889z"  horiz-adv-x="1024" />

    
    </font>
</defs>
</svg>
